M48
; DRILL file {KiCad 6.0.5-2.fc36} date Po 30. května 2022, 19:00:28
; FORMAT={-:-/ absolute / inch / decimal}
; #@! TF.CreationDate,2022-05-30T19:00:28+02:00
; #@! TF.GenerationSoftware,Kicad,Pcbnew,6.0.5-2.fc36
; #@! TF.FileFunction,NonPlated,1,2,NPTH
FMAT,2
INCH
; #@! TA.AperFunction,NonPlated,NPTH,ComponentDrill
T1C0.0354
; #@! TA.AperFunction,NonPlated,NPTH,ComponentDrill
T2C0.0670
; #@! TA.AperFunction,NonPlated,NPTH,ComponentDrill
T3C0.1181
; #@! TA.AperFunction,NonPlated,NPTH,ComponentDrill
T4C0.1350
%
G90
G05
T1
X3.8319Y-0.1772
X3.8319Y-0.1772
X3.8319Y-0.2953
X3.8319Y-0.2953
T2
X-0.2165Y1.3386
X-0.2165Y1.3386
X-0.2165Y0.6693
X-0.2165Y0.6693
X-0.2165Y0.0
X-0.2165Y0.0
X0.2165Y1.3386
X0.2165Y1.3386
X0.2165Y0.6693
X0.2165Y0.6693
X0.2165Y0.0
X0.2165Y0.0
X0.4921Y2.0472
X0.4921Y2.0472
X0.4921Y1.378
X0.4921Y1.378
X0.4921Y0.7087
X0.4921Y0.7087
X0.9252Y2.0472
X0.9252Y2.0472
X0.9252Y1.378
X0.9252Y1.378
X0.9252Y0.7087
X0.9252Y0.7087
X1.2008Y2.126
X1.2008Y2.126
X1.2008Y1.4567
X1.2008Y1.4567
X1.2008Y0.7874
X1.2008Y0.7874
X1.6339Y2.126
X1.6339Y2.126
X1.6339Y1.4567
X1.6339Y1.4567
X1.6339Y0.7874
X1.6339Y0.7874
X1.7126Y-0.2756
X1.7126Y-0.2756
X1.9094Y1.811
X1.9094Y1.811
X1.9094Y1.1417
X1.9094Y1.1417
X1.9094Y0.4724
X1.9094Y0.4724
X2.1457Y-0.2756
X2.1457Y-0.2756
X2.3425Y1.811
X2.3425Y1.811
X2.3425Y1.1417
X2.3425Y1.1417
X2.3425Y0.4724
X2.3425Y0.4724
X2.5524Y-0.3196
X2.5524Y-0.3196
X2.6181Y1.4173
X2.6181Y1.4173
X2.6181Y0.748
X2.6181Y0.748
X2.9594Y-0.4678
X2.9594Y-0.4678
X3.0512Y1.4173
X3.0512Y1.4173
X3.0512Y0.748
X3.0512Y0.748
X3.2556Y-0.7177
X3.2556Y-0.7177
X3.6014Y-0.9783
X3.6014Y-0.9783
T3
X-0.1969Y1.4862
X-0.1969Y0.8169
X-0.1969Y0.1476
X0.0Y1.5728
X0.0Y1.5728
X0.0Y0.9035
X0.0Y0.9035
X0.0Y0.2343
X0.0Y0.2343
X0.1969Y1.4862
X0.1969Y0.8169
X0.1969Y0.1476
X0.5118Y2.1949
X0.5118Y1.5256
X0.5118Y0.8563
X0.7087Y2.2815
X0.7087Y2.2815
X0.7087Y1.6122
X0.7087Y1.6122
X0.7087Y0.9429
X0.7087Y0.9429
X0.9055Y2.1949
X0.9055Y1.5256
X0.9055Y0.8563
X1.2205Y2.2736
X1.2205Y1.6043
X1.2205Y0.935
X1.4173Y2.3602
X1.4173Y2.3602
X1.4173Y1.6909
X1.4173Y1.6909
X1.4173Y1.0217
X1.4173Y1.0217
X1.6142Y2.2736
X1.6142Y1.6043
X1.6142Y0.935
X1.7323Y-0.128
X1.9291Y1.9587
X1.9291Y1.2894
X1.9291Y0.6201
X1.9291Y-0.0413
X1.9291Y-0.0413
X2.126Y2.0453
X2.126Y2.0453
X2.126Y1.376
X2.126Y1.376
X2.126Y0.7067
X2.126Y0.7067
X2.126Y-0.128
X2.3228Y1.9587
X2.3228Y1.2894
X2.3228Y0.6201
X2.6214Y-0.1876
X2.6378Y1.565
X2.6378Y0.8957
X2.8346Y1.6516
X2.8346Y1.6516
X2.8346Y0.9823
X2.8346Y0.9823
X2.836Y-0.1736
X2.836Y-0.1736
X2.9914Y-0.3223
X3.0315Y1.565
X3.0315Y0.8957
X3.3601Y-0.6116
X3.5695Y-0.6609
X3.5695Y-0.6609
X3.6746Y-0.8485
T4
X0.0Y1.3386
X0.0Y1.3386
X0.0Y0.6693
X0.0Y0.6693
X0.0Y0.0
X0.0Y0.0
X0.7087Y2.0472
X0.7087Y2.0472
X0.7087Y1.378
X0.7087Y1.378
X0.7087Y0.7087
X0.7087Y0.7087
X1.4173Y2.126
X1.4173Y2.126
X1.4173Y1.4567
X1.4173Y1.4567
X1.4173Y0.7874
X1.4173Y0.7874
X1.9291Y-0.2756
X1.9291Y-0.2756
X2.126Y1.811
X2.126Y1.811
X2.126Y1.1417
X2.126Y1.1417
X2.126Y0.4724
X2.126Y0.4724
X2.7559Y-0.3937
X2.7559Y-0.3937
X2.8346Y1.4173
X2.8346Y1.4173
X2.8346Y0.748
X2.8346Y0.748
X3.4285Y-0.848
X3.4285Y-0.848
T0
M30
