%TF.GenerationSoftware,KiCad,Pcbnew,6.0.5-2.fc36*%
%TF.CreationDate,2022-05-30T19:14:04+02:00*%
%TF.ProjectId,main,6d61696e-2e6b-4696-9361-645f70636258,v1.0.0*%
%TF.SameCoordinates,Original*%
%TF.FileFunction,Paste,Top*%
%TF.FilePolarity,Positive*%
%FSLAX46Y46*%
G04 Gerber Fmt 4.6, Leading zero omitted, Abs format (unit mm)*
G04 Created by KiCad (PCBNEW 6.0.5-2.fc36) date 2022-05-30 19:14:04*
%MOMM*%
%LPD*%
G01*
G04 APERTURE LIST*
G04 Aperture macros list*
%AMRotRect*
0 Rectangle, with rotation*
0 The origin of the aperture is its center*
0 $1 length*
0 $2 width*
0 $3 Rotation angle, in degrees counterclockwise*
0 Add horizontal line*
21,1,$1,$2,0,0,$3*%
G04 Aperture macros list end*
%ADD10R,2.600000X2.600000*%
%ADD11RotRect,2.600000X2.600000X340.000000*%
%ADD12RotRect,2.600000X2.600000X323.000000*%
%ADD13R,0.700000X1.500000*%
%ADD14R,1.000000X0.800000*%
%ADD15R,0.900000X1.700000*%
G04 APERTURE END LIST*
D10*
%TO.C,S1*%
X3275000Y5950000D03*
X-8275000Y3750000D03*
%TD*%
%TO.C,S3*%
X3275000Y22950000D03*
X-8275000Y20750000D03*
%TD*%
%TO.C,S5*%
X3275000Y39950000D03*
X-8275000Y37750000D03*
%TD*%
%TO.C,S7*%
X21275000Y23950000D03*
X9725000Y21750000D03*
%TD*%
%TO.C,S9*%
X21275000Y40950000D03*
X9725000Y38750000D03*
%TD*%
%TO.C,S11*%
X21275000Y57950000D03*
X9725000Y55750000D03*
%TD*%
%TO.C,S13*%
X39275000Y25950000D03*
X27725000Y23750000D03*
%TD*%
%TO.C,S15*%
X39275000Y42950000D03*
X27725000Y40750000D03*
%TD*%
%TO.C,S17*%
X39275000Y59950000D03*
X27725000Y57750000D03*
%TD*%
%TO.C,S19*%
X57275000Y17950000D03*
X45725000Y15750000D03*
%TD*%
%TO.C,S21*%
X57275000Y34950000D03*
X45725000Y32750000D03*
%TD*%
%TO.C,S23*%
X57275000Y51950000D03*
X45725000Y49750000D03*
%TD*%
%TO.C,S25*%
X75275000Y24950000D03*
X63725000Y22750000D03*
%TD*%
%TO.C,S27*%
X75275000Y41950000D03*
X63725000Y39750000D03*
%TD*%
%TO.C,S29*%
X52275000Y-1050000D03*
X40725000Y-3250000D03*
%TD*%
D11*
%TO.C,S31*%
X75112513Y-5528945D03*
X63506619Y-3645936D03*
%TD*%
D12*
%TO.C,S33*%
X93280083Y-18757929D03*
X82731849Y-13563964D03*
%TD*%
D13*
%TO.C,*%
X95570000Y-8250000D03*
X95570000Y-5250000D03*
X95570000Y-3750000D03*
D14*
X98430000Y-9650000D03*
X98430000Y-2350000D03*
X96220000Y-2350000D03*
X96220000Y-9650000D03*
%TD*%
D15*
%TO.C,*%
X37700000Y-5000000D03*
X34300000Y-5000000D03*
%TD*%
M02*
