%TF.GenerationSoftware,KiCad,Pcbnew,6.0.5-2.fc36*%
%TF.CreationDate,2022-05-30T19:14:05+02:00*%
%TF.ProjectId,main,6d61696e-2e6b-4696-9361-645f70636258,v1.0.0*%
%TF.SameCoordinates,Original*%
%TF.FileFunction,Profile,NP*%
%FSLAX46Y46*%
G04 Gerber Fmt 4.6, Leading zero omitted, Abs format (unit mm)*
G04 Created by KiCad (PCBNEW 6.0.5-2.fc36) date 2022-05-30 19:14:05*
%MOMM*%
%LPD*%
G01*
G04 APERTURE LIST*
%TA.AperFunction,Profile*%
%ADD10C,0.050000*%
%TD*%
%TA.AperFunction,Profile*%
%ADD11C,0.150000*%
%TD*%
G04 APERTURE END LIST*
D10*
X25700000Y60799999D02*
G75*
G03*
X26500000Y61800000I198J819842D01*
G01*
X27500001Y62750036D02*
G75*
G03*
X26500000Y61800000I-30001J-969736D01*
G01*
X100713146Y-20415775D02*
G75*
G03*
X100999999Y-19750000I-513146J615775D01*
G01*
D11*
X-8750000Y-8750000D02*
X37250000Y-8750000D01*
X-10750000Y-6750000D02*
X-10750000Y40750000D01*
X-8750000Y42750000D02*
X5250000Y42750000D01*
X9250000Y60750000D02*
X25700000Y60800000D01*
X7250000Y44750000D02*
X7250000Y58750000D01*
X27500000Y62750000D02*
X44750000Y62750000D01*
X46750000Y60750000D02*
X46750000Y56750000D01*
X48750000Y54750000D02*
X61750000Y54750000D01*
X63750000Y46750000D02*
X63750000Y52750000D01*
X65750000Y44750000D02*
X99000000Y44750000D01*
X41250000Y-15750000D02*
X51090640Y-15750000D01*
X39250000Y-13750000D02*
X39250000Y-10750000D01*
X51774680Y-15870615D02*
X77118215Y-25094907D01*
X77637805Y-25377021D02*
X88406613Y-33491901D01*
X91207514Y-33098260D02*
X100700000Y-20400000D01*
X101000000Y-19750000D02*
X101000000Y42750000D01*
X39250000Y-10750000D02*
G75*
G03*
X37250000Y-8750000I-2000000J0D01*
G01*
X39250000Y-13750000D02*
G75*
G03*
X41250000Y-15750000I2000000J0D01*
G01*
X51774680Y-15870615D02*
G75*
G03*
X51090640Y-15750000I-684040J-1879385D01*
G01*
X77637805Y-25377021D02*
G75*
G03*
X77118215Y-25094907I-1203630J-1597271D01*
G01*
X88406613Y-33491901D02*
G75*
G03*
X91207514Y-33098260I1203630J1597271D01*
G01*
X101000000Y42750000D02*
G75*
G03*
X99000000Y44750000I-2000000J0D01*
G01*
X63750000Y46750000D02*
G75*
G03*
X65750000Y44750000I2000000J0D01*
G01*
X63750000Y52750000D02*
G75*
G03*
X61750000Y54750000I-2000000J0D01*
G01*
X46750000Y56750000D02*
G75*
G03*
X48750000Y54750000I2000000J0D01*
G01*
X46750000Y60750000D02*
G75*
G03*
X44750000Y62750000I-2000000J0D01*
G01*
X9250000Y60750000D02*
G75*
G03*
X7250000Y58750000I0J-2000000D01*
G01*
X5250000Y42750000D02*
G75*
G03*
X7250000Y44750000I0J2000000D01*
G01*
X-8750000Y42750000D02*
G75*
G03*
X-10750000Y40750000I0J-2000000D01*
G01*
X-10750000Y-6750000D02*
G75*
G03*
X-8750000Y-8750000I2000000J0D01*
G01*
M02*
