M48
; DRILL file {KiCad 6.0.5-2.fc36} date Po 30. května 2022, 19:13:59
; FORMAT={-:-/ absolute / inch / decimal}
; #@! TF.CreationDate,2022-05-30T19:13:59+02:00
; #@! TF.GenerationSoftware,Kicad,Pcbnew,6.0.5-2.fc36
; #@! TF.FileFunction,Plated,1,2,PTH
FMAT,2
INCH
; #@! TA.AperFunction,Plated,PTH,ComponentDrill
T1C0.0118
; #@! TA.AperFunction,Plated,PTH,ComponentDrill
T2C0.0157
; #@! TA.AperFunction,Plated,PTH,ComponentDrill
T3C0.0276
; #@! TA.AperFunction,Plated,PTH,ComponentDrill
T4C0.0433
; #@! TA.AperFunction,Plated,PTH,ComponentDrill
T5C0.0500
%
G90
G05
T1
X1.4173Y0.1969
X1.4961Y0.1969
X3.6614Y-0.1575
X3.8583Y0.1969
T2
X3.5527Y1.5343
X3.5527Y1.4343
X3.5527Y1.3343
X3.5527Y1.2343
X3.5527Y1.1343
X3.5527Y1.0343
X3.5527Y0.9343
X3.5527Y0.8343
X3.5527Y0.7343
X3.5527Y0.6343
X3.5527Y0.5343
X3.5527Y0.4343
X3.6127Y1.5343
X3.6127Y1.4343
X3.6127Y1.3343
X3.6127Y1.2343
X3.6127Y1.1343
X3.6127Y1.0343
X3.6127Y0.9343
X3.6127Y0.8343
X3.6127Y0.7343
X3.6127Y0.6343
X3.6127Y0.5343
X3.6127Y0.4343
T3
X3.5531Y0.1969
X3.6122Y0.1969
T4
X3.2827Y1.5343
X3.2827Y1.5343
X3.2827Y1.4343
X3.2827Y1.3343
X3.2827Y1.2343
X3.2827Y1.1343
X3.2827Y1.0343
X3.2827Y0.9343
X3.2827Y0.8343
X3.2827Y0.7343
X3.2827Y0.6343
X3.2827Y0.5343
X3.2827Y0.4343
X3.8827Y1.5343
X3.8827Y1.5343
X3.8827Y1.4343
X3.8827Y1.3343
X3.8827Y1.2343
X3.8827Y1.1343
X3.8827Y1.0343
X3.8827Y0.9343
X3.8827Y0.8343
X3.8827Y0.7343
X3.8827Y0.6343
X3.8827Y0.5343
X3.8827Y0.4343
T5
X-0.1969Y1.189
X-0.1969Y0.5197
X-0.1969Y-0.1496
X0.0Y1.1063
X0.0Y1.1063
X0.0Y0.437
X0.0Y0.437
X0.0Y-0.2323
X0.0Y-0.2323
X0.1969Y1.189
X0.1969Y0.5197
X0.1969Y-0.1496
X0.5118Y1.8976
X0.5118Y1.2283
X0.5118Y0.5591
X0.7087Y1.815
X0.7087Y1.815
X0.7087Y1.1457
X0.7087Y1.1457
X0.7087Y0.4764
X0.7087Y0.4764
X0.9055Y1.8976
X0.9055Y1.2283
X0.9055Y0.5591
X1.2205Y1.9764
X1.2205Y1.3071
X1.2205Y0.6378
X1.4173Y1.8937
X1.4173Y1.8937
X1.4173Y1.2244
X1.4173Y1.2244
X1.4173Y0.5551
X1.4173Y0.5551
X1.6142Y1.9764
X1.6142Y1.3071
X1.6142Y0.6378
X1.7323Y-0.4252
X1.9291Y1.6614
X1.9291Y0.9921
X1.9291Y0.3228
X1.9291Y-0.5079
X1.9291Y-0.5079
X2.126Y1.5787
X2.126Y1.5787
X2.126Y0.9094
X2.126Y0.9094
X2.126Y0.2402
X2.126Y0.2402
X2.126Y-0.4252
X2.3228Y1.6614
X2.3228Y0.9921
X2.3228Y0.3228
X2.5198Y-0.467
X2.6378Y1.2677
X2.6378Y0.5984
X2.6765Y-0.612
X2.6765Y-0.612
X2.8346Y1.185
X2.8346Y1.185
X2.8346Y0.5157
X2.8346Y0.5157
X2.8897Y-0.6016
X3.0315Y1.2677
X3.0315Y0.5984
X3.1812Y-0.849
X3.2887Y-1.0335
X3.2887Y-1.0335
X3.4957Y-1.0859
T0
M30
