%TF.GenerationSoftware,KiCad,Pcbnew,6.0.5-2.fc36*%
%TF.CreationDate,2022-05-30T19:14:05+02:00*%
%TF.ProjectId,main,6d61696e-2e6b-4696-9361-645f70636258,v1.0.0*%
%TF.SameCoordinates,Original*%
%TF.FileFunction,Soldermask,Top*%
%TF.FilePolarity,Negative*%
%FSLAX46Y46*%
G04 Gerber Fmt 4.6, Leading zero omitted, Abs format (unit mm)*
G04 Created by KiCad (PCBNEW 6.0.5-2.fc36) date 2022-05-30 19:14:05*
%MOMM*%
%LPD*%
G01*
G04 APERTURE LIST*
G04 Aperture macros list*
%AMRoundRect*
0 Rectangle with rounded corners*
0 $1 Rounding radius*
0 $2 $3 $4 $5 $6 $7 $8 $9 X,Y pos of 4 corners*
0 Add a 4 corners polygon primitive as box body*
4,1,4,$2,$3,$4,$5,$6,$7,$8,$9,$2,$3,0*
0 Add four circle primitives for the rounded corners*
1,1,$1+$1,$2,$3*
1,1,$1+$1,$4,$5*
1,1,$1+$1,$6,$7*
1,1,$1+$1,$8,$9*
0 Add four rect primitives between the rounded corners*
20,1,$1+$1,$2,$3,$4,$5,0*
20,1,$1+$1,$4,$5,$6,$7,0*
20,1,$1+$1,$6,$7,$8,$9,0*
20,1,$1+$1,$8,$9,$2,$3,0*%
%AMFreePoly0*
4,1,14,0.635355,0.435355,0.650000,0.400000,0.650000,0.200000,0.635355,0.164645,0.035355,-0.435355,0.000000,-0.450000,-0.035355,-0.435355,-0.635355,0.164645,-0.650000,0.200000,-0.650000,0.400000,-0.635355,0.435355,-0.600000,0.450000,0.600000,0.450000,0.635355,0.435355,0.635355,0.435355,$1*%
%AMFreePoly1*
4,1,16,0.635355,1.035355,0.650000,1.000000,0.650000,-0.250000,0.635355,-0.285355,0.600000,-0.300000,-0.600000,-0.300000,-0.635355,-0.285355,-0.650000,-0.250000,-0.650000,1.000000,-0.635355,1.035355,-0.600000,1.050000,-0.564645,1.035355,0.000000,0.470710,0.564645,1.035355,0.600000,1.050000,0.635355,1.035355,0.635355,1.035355,$1*%
G04 Aperture macros list end*
%ADD10C,0.250000*%
%ADD11C,0.100000*%
%ADD12C,3.529000*%
%ADD13C,1.801800*%
%ADD14C,3.100000*%
%ADD15RoundRect,0.050000X-1.300000X-1.300000X1.300000X-1.300000X1.300000X1.300000X-1.300000X1.300000X0*%
%ADD16C,2.132000*%
%ADD17RoundRect,0.050000X-1.666227X-0.776974X0.776974X-1.666227X1.666227X0.776974X-0.776974X1.666227X0*%
%ADD18RoundRect,0.050000X-1.820586X-0.255867X0.255867X-1.820586X1.820586X0.255867X-0.255867X1.820586X0*%
%ADD19C,1.700000*%
%ADD20FreePoly0,90.000000*%
%ADD21FreePoly1,90.000000*%
%ADD22RoundRect,0.050000X-0.800000X0.800000X-0.800000X-0.800000X0.800000X-0.800000X0.800000X0.800000X0*%
%ADD23FreePoly1,270.000000*%
%ADD24FreePoly0,270.000000*%
%ADD25C,1.000000*%
%ADD26RoundRect,0.050000X-0.350000X-0.750000X0.350000X-0.750000X0.350000X0.750000X-0.350000X0.750000X0*%
%ADD27RoundRect,0.050000X-0.500000X-0.400000X0.500000X-0.400000X0.500000X0.400000X-0.500000X0.400000X0*%
%ADD28RoundRect,0.050000X-0.450000X-0.850000X0.450000X-0.850000X0.450000X0.850000X-0.450000X0.850000X0*%
%ADD29C,1.100000*%
G04 APERTURE END LIST*
D10*
%TO.C,MCU1*%
X90363000Y11030000D02*
G75*
G03*
X90363000Y11030000I-125000J0D01*
G01*
X91887000Y11030000D02*
G75*
G03*
X91887000Y11030000I-125000J0D01*
G01*
X90363000Y13570000D02*
G75*
G03*
X90363000Y13570000I-125000J0D01*
G01*
X91887000Y13570000D02*
G75*
G03*
X91887000Y13570000I-125000J0D01*
G01*
X90363000Y16110000D02*
G75*
G03*
X90363000Y16110000I-125000J0D01*
G01*
X91887000Y16110000D02*
G75*
G03*
X91887000Y16110000I-125000J0D01*
G01*
X90363000Y18650000D02*
G75*
G03*
X90363000Y18650000I-125000J0D01*
G01*
X91887000Y18650000D02*
G75*
G03*
X91887000Y18650000I-125000J0D01*
G01*
X90363000Y21190000D02*
G75*
G03*
X90363000Y21190000I-125000J0D01*
G01*
X91887000Y21190000D02*
G75*
G03*
X91887000Y21190000I-125000J0D01*
G01*
X90363000Y23730000D02*
G75*
G03*
X90363000Y23730000I-125000J0D01*
G01*
X91887000Y23730000D02*
G75*
G03*
X91887000Y23730000I-125000J0D01*
G01*
X90363000Y26270000D02*
G75*
G03*
X90363000Y26270000I-125000J0D01*
G01*
X91887000Y26270000D02*
G75*
G03*
X91887000Y26270000I-125000J0D01*
G01*
X90363000Y28810000D02*
G75*
G03*
X90363000Y28810000I-125000J0D01*
G01*
X91887000Y28810000D02*
G75*
G03*
X91887000Y28810000I-125000J0D01*
G01*
X90363000Y31350000D02*
G75*
G03*
X90363000Y31350000I-125000J0D01*
G01*
X91887000Y31350000D02*
G75*
G03*
X91887000Y31350000I-125000J0D01*
G01*
X90363000Y33890000D02*
G75*
G03*
X90363000Y33890000I-125000J0D01*
G01*
X91887000Y33890000D02*
G75*
G03*
X91887000Y33890000I-125000J0D01*
G01*
X91887000Y36430000D02*
G75*
G03*
X91887000Y36430000I-125000J0D01*
G01*
X90363000Y36430000D02*
G75*
G03*
X90363000Y36430000I-125000J0D01*
G01*
X90363000Y38970000D02*
G75*
G03*
X90363000Y38970000I-125000J0D01*
G01*
X91887000Y38970000D02*
G75*
G03*
X91887000Y38970000I-125000J0D01*
G01*
G36*
X97096000Y38462000D02*
G01*
X96080000Y38462000D01*
X96080000Y39478000D01*
X97096000Y39478000D01*
X97096000Y38462000D01*
G37*
D11*
X97096000Y38462000D02*
X96080000Y38462000D01*
X96080000Y39478000D01*
X97096000Y39478000D01*
X97096000Y38462000D01*
G36*
X97096000Y23222000D02*
G01*
X96080000Y23222000D01*
X96080000Y24238000D01*
X97096000Y24238000D01*
X97096000Y23222000D01*
G37*
X97096000Y23222000D02*
X96080000Y23222000D01*
X96080000Y24238000D01*
X97096000Y24238000D01*
X97096000Y23222000D01*
G36*
X97096000Y35922000D02*
G01*
X96080000Y35922000D01*
X96080000Y36938000D01*
X97096000Y36938000D01*
X97096000Y35922000D01*
G37*
X97096000Y35922000D02*
X96080000Y35922000D01*
X96080000Y36938000D01*
X97096000Y36938000D01*
X97096000Y35922000D01*
G36*
X97096000Y33382000D02*
G01*
X96080000Y33382000D01*
X96080000Y34398000D01*
X97096000Y34398000D01*
X97096000Y33382000D01*
G37*
X97096000Y33382000D02*
X96080000Y33382000D01*
X96080000Y34398000D01*
X97096000Y34398000D01*
X97096000Y33382000D01*
G36*
X97096000Y28302000D02*
G01*
X96080000Y28302000D01*
X96080000Y29318000D01*
X97096000Y29318000D01*
X97096000Y28302000D01*
G37*
X97096000Y28302000D02*
X96080000Y28302000D01*
X96080000Y29318000D01*
X97096000Y29318000D01*
X97096000Y28302000D01*
G36*
X97096000Y25762000D02*
G01*
X96080000Y25762000D01*
X96080000Y26778000D01*
X97096000Y26778000D01*
X97096000Y25762000D01*
G37*
X97096000Y25762000D02*
X96080000Y25762000D01*
X96080000Y26778000D01*
X97096000Y26778000D01*
X97096000Y25762000D01*
G36*
X97096000Y18142000D02*
G01*
X96080000Y18142000D01*
X96080000Y19158000D01*
X97096000Y19158000D01*
X97096000Y18142000D01*
G37*
X97096000Y18142000D02*
X96080000Y18142000D01*
X96080000Y19158000D01*
X97096000Y19158000D01*
X97096000Y18142000D01*
G36*
X97096000Y13062000D02*
G01*
X96080000Y13062000D01*
X96080000Y14078000D01*
X97096000Y14078000D01*
X97096000Y13062000D01*
G37*
X97096000Y13062000D02*
X96080000Y13062000D01*
X96080000Y14078000D01*
X97096000Y14078000D01*
X97096000Y13062000D01*
G36*
X97096000Y30842000D02*
G01*
X96080000Y30842000D01*
X96080000Y31858000D01*
X97096000Y31858000D01*
X97096000Y30842000D01*
G37*
X97096000Y30842000D02*
X96080000Y30842000D01*
X96080000Y31858000D01*
X97096000Y31858000D01*
X97096000Y30842000D01*
G36*
X97096000Y20682000D02*
G01*
X96080000Y20682000D01*
X96080000Y21698000D01*
X97096000Y21698000D01*
X97096000Y20682000D01*
G37*
X97096000Y20682000D02*
X96080000Y20682000D01*
X96080000Y21698000D01*
X97096000Y21698000D01*
X97096000Y20682000D01*
G36*
X97096000Y15602000D02*
G01*
X96080000Y15602000D01*
X96080000Y16618000D01*
X97096000Y16618000D01*
X97096000Y15602000D01*
G37*
X97096000Y15602000D02*
X96080000Y15602000D01*
X96080000Y16618000D01*
X97096000Y16618000D01*
X97096000Y15602000D01*
G36*
X97096000Y10522000D02*
G01*
X96080000Y10522000D01*
X96080000Y11538000D01*
X97096000Y11538000D01*
X97096000Y10522000D01*
G37*
X97096000Y10522000D02*
X96080000Y10522000D01*
X96080000Y11538000D01*
X97096000Y11538000D01*
X97096000Y10522000D01*
G36*
X85920000Y10522000D02*
G01*
X84904000Y10522000D01*
X84904000Y11538000D01*
X85920000Y11538000D01*
X85920000Y10522000D01*
G37*
X85920000Y10522000D02*
X84904000Y10522000D01*
X84904000Y11538000D01*
X85920000Y11538000D01*
X85920000Y10522000D01*
G36*
X85920000Y13062000D02*
G01*
X84904000Y13062000D01*
X84904000Y14078000D01*
X85920000Y14078000D01*
X85920000Y13062000D01*
G37*
X85920000Y13062000D02*
X84904000Y13062000D01*
X84904000Y14078000D01*
X85920000Y14078000D01*
X85920000Y13062000D01*
G36*
X85920000Y15602000D02*
G01*
X84904000Y15602000D01*
X84904000Y16618000D01*
X85920000Y16618000D01*
X85920000Y15602000D01*
G37*
X85920000Y15602000D02*
X84904000Y15602000D01*
X84904000Y16618000D01*
X85920000Y16618000D01*
X85920000Y15602000D01*
G36*
X85920000Y18142000D02*
G01*
X84904000Y18142000D01*
X84904000Y19158000D01*
X85920000Y19158000D01*
X85920000Y18142000D01*
G37*
X85920000Y18142000D02*
X84904000Y18142000D01*
X84904000Y19158000D01*
X85920000Y19158000D01*
X85920000Y18142000D01*
G36*
X85920000Y20682000D02*
G01*
X84904000Y20682000D01*
X84904000Y21698000D01*
X85920000Y21698000D01*
X85920000Y20682000D01*
G37*
X85920000Y20682000D02*
X84904000Y20682000D01*
X84904000Y21698000D01*
X85920000Y21698000D01*
X85920000Y20682000D01*
G36*
X85920000Y23222000D02*
G01*
X84904000Y23222000D01*
X84904000Y24238000D01*
X85920000Y24238000D01*
X85920000Y23222000D01*
G37*
X85920000Y23222000D02*
X84904000Y23222000D01*
X84904000Y24238000D01*
X85920000Y24238000D01*
X85920000Y23222000D01*
G36*
X85920000Y25762000D02*
G01*
X84904000Y25762000D01*
X84904000Y26778000D01*
X85920000Y26778000D01*
X85920000Y25762000D01*
G37*
X85920000Y25762000D02*
X84904000Y25762000D01*
X84904000Y26778000D01*
X85920000Y26778000D01*
X85920000Y25762000D01*
G36*
X85920000Y28302000D02*
G01*
X84904000Y28302000D01*
X84904000Y29318000D01*
X85920000Y29318000D01*
X85920000Y28302000D01*
G37*
X85920000Y28302000D02*
X84904000Y28302000D01*
X84904000Y29318000D01*
X85920000Y29318000D01*
X85920000Y28302000D01*
G36*
X85920000Y30842000D02*
G01*
X84904000Y30842000D01*
X84904000Y31858000D01*
X85920000Y31858000D01*
X85920000Y30842000D01*
G37*
X85920000Y30842000D02*
X84904000Y30842000D01*
X84904000Y31858000D01*
X85920000Y31858000D01*
X85920000Y30842000D01*
G36*
X85920000Y33382000D02*
G01*
X84904000Y33382000D01*
X84904000Y34398000D01*
X85920000Y34398000D01*
X85920000Y33382000D01*
G37*
X85920000Y33382000D02*
X84904000Y33382000D01*
X84904000Y34398000D01*
X85920000Y34398000D01*
X85920000Y33382000D01*
G36*
X85920000Y35922000D02*
G01*
X84904000Y35922000D01*
X84904000Y36938000D01*
X85920000Y36938000D01*
X85920000Y35922000D01*
G37*
X85920000Y35922000D02*
X84904000Y35922000D01*
X84904000Y36938000D01*
X85920000Y36938000D01*
X85920000Y35922000D01*
G36*
X85920000Y38462000D02*
G01*
X84904000Y38462000D01*
X84904000Y39478000D01*
X85920000Y39478000D01*
X85920000Y38462000D01*
G37*
X85920000Y38462000D02*
X84904000Y38462000D01*
X84904000Y39478000D01*
X85920000Y39478000D01*
X85920000Y38462000D01*
%TD*%
D12*
%TO.C,S1*%
X0Y0D03*
D13*
X5500000Y0D03*
X-5500000Y0D03*
D14*
X5000000Y3750000D03*
X0Y5950000D03*
X-5000000Y3750000D03*
X0Y5950000D03*
D15*
X3275000Y5950000D03*
X-8275000Y3750000D03*
%TD*%
D12*
%TO.C,S2*%
X0Y0D03*
D13*
X-5500000Y0D03*
X5500000Y0D03*
D16*
X-5000000Y-3800000D03*
X0Y-5900000D03*
X5000000Y-3800000D03*
X0Y-5900000D03*
%TD*%
D12*
%TO.C,S3*%
X0Y17000000D03*
D13*
X5500000Y17000000D03*
X-5500000Y17000000D03*
D14*
X5000000Y20750000D03*
X0Y22950000D03*
X-5000000Y20750000D03*
X0Y22950000D03*
D15*
X3275000Y22950000D03*
X-8275000Y20750000D03*
%TD*%
D12*
%TO.C,S4*%
X0Y17000000D03*
D13*
X-5500000Y17000000D03*
X5500000Y17000000D03*
D16*
X-5000000Y13200000D03*
X0Y11100000D03*
X5000000Y13200000D03*
X0Y11100000D03*
%TD*%
D12*
%TO.C,S5*%
X0Y34000000D03*
D13*
X5500000Y34000000D03*
X-5500000Y34000000D03*
D14*
X5000000Y37750000D03*
X0Y39950000D03*
X-5000000Y37750000D03*
X0Y39950000D03*
D15*
X3275000Y39950000D03*
X-8275000Y37750000D03*
%TD*%
D12*
%TO.C,S6*%
X0Y34000000D03*
D13*
X-5500000Y34000000D03*
X5500000Y34000000D03*
D16*
X-5000000Y30200000D03*
X0Y28100000D03*
X5000000Y30200000D03*
X0Y28100000D03*
%TD*%
D12*
%TO.C,S7*%
X18000000Y18000000D03*
D13*
X23500000Y18000000D03*
X12500000Y18000000D03*
D14*
X23000000Y21750000D03*
X18000000Y23950000D03*
X13000000Y21750000D03*
X18000000Y23950000D03*
D15*
X21275000Y23950000D03*
X9725000Y21750000D03*
%TD*%
D12*
%TO.C,S8*%
X18000000Y18000000D03*
D13*
X12500000Y18000000D03*
X23500000Y18000000D03*
D16*
X13000000Y14200000D03*
X18000000Y12100000D03*
X23000000Y14200000D03*
X18000000Y12100000D03*
%TD*%
D12*
%TO.C,S9*%
X18000000Y35000000D03*
D13*
X23500000Y35000000D03*
X12500000Y35000000D03*
D14*
X23000000Y38750000D03*
X18000000Y40950000D03*
X13000000Y38750000D03*
X18000000Y40950000D03*
D15*
X21275000Y40950000D03*
X9725000Y38750000D03*
%TD*%
D12*
%TO.C,S10*%
X18000000Y35000000D03*
D13*
X12500000Y35000000D03*
X23500000Y35000000D03*
D16*
X13000000Y31200000D03*
X18000000Y29100000D03*
X23000000Y31200000D03*
X18000000Y29100000D03*
%TD*%
D12*
%TO.C,S11*%
X18000000Y52000000D03*
D13*
X23500000Y52000000D03*
X12500000Y52000000D03*
D14*
X23000000Y55750000D03*
X18000000Y57950000D03*
X13000000Y55750000D03*
X18000000Y57950000D03*
D15*
X21275000Y57950000D03*
X9725000Y55750000D03*
%TD*%
D12*
%TO.C,S12*%
X18000000Y52000000D03*
D13*
X12500000Y52000000D03*
X23500000Y52000000D03*
D16*
X13000000Y48200000D03*
X18000000Y46100000D03*
X23000000Y48200000D03*
X18000000Y46100000D03*
%TD*%
D12*
%TO.C,S13*%
X36000000Y20000000D03*
D13*
X41500000Y20000000D03*
X30500000Y20000000D03*
D14*
X41000000Y23750000D03*
X36000000Y25950000D03*
X31000000Y23750000D03*
X36000000Y25950000D03*
D15*
X39275000Y25950000D03*
X27725000Y23750000D03*
%TD*%
D12*
%TO.C,S14*%
X36000000Y20000000D03*
D13*
X30500000Y20000000D03*
X41500000Y20000000D03*
D16*
X31000000Y16200000D03*
X36000000Y14100000D03*
X41000000Y16200000D03*
X36000000Y14100000D03*
%TD*%
D12*
%TO.C,S15*%
X36000000Y37000000D03*
D13*
X41500000Y37000000D03*
X30500000Y37000000D03*
D14*
X41000000Y40750000D03*
X36000000Y42950000D03*
X31000000Y40750000D03*
X36000000Y42950000D03*
D15*
X39275000Y42950000D03*
X27725000Y40750000D03*
%TD*%
D12*
%TO.C,S16*%
X36000000Y37000000D03*
D13*
X30500000Y37000000D03*
X41500000Y37000000D03*
D16*
X31000000Y33200000D03*
X36000000Y31100000D03*
X41000000Y33200000D03*
X36000000Y31100000D03*
%TD*%
D12*
%TO.C,S17*%
X36000000Y54000000D03*
D13*
X41500000Y54000000D03*
X30500000Y54000000D03*
D14*
X41000000Y57750000D03*
X36000000Y59950000D03*
X31000000Y57750000D03*
X36000000Y59950000D03*
D15*
X39275000Y59950000D03*
X27725000Y57750000D03*
%TD*%
D12*
%TO.C,S18*%
X36000000Y54000000D03*
D13*
X30500000Y54000000D03*
X41500000Y54000000D03*
D16*
X31000000Y50200000D03*
X36000000Y48100000D03*
X41000000Y50200000D03*
X36000000Y48100000D03*
%TD*%
D12*
%TO.C,S19*%
X54000000Y12000000D03*
D13*
X59500000Y12000000D03*
X48500000Y12000000D03*
D14*
X59000000Y15750000D03*
X54000000Y17950000D03*
X49000000Y15750000D03*
X54000000Y17950000D03*
D15*
X57275000Y17950000D03*
X45725000Y15750000D03*
%TD*%
D12*
%TO.C,S20*%
X54000000Y12000000D03*
D13*
X48500000Y12000000D03*
X59500000Y12000000D03*
D16*
X49000000Y8200000D03*
X54000000Y6100000D03*
X59000000Y8200000D03*
X54000000Y6100000D03*
%TD*%
D12*
%TO.C,S21*%
X54000000Y29000000D03*
D13*
X59500000Y29000000D03*
X48500000Y29000000D03*
D14*
X59000000Y32750000D03*
X54000000Y34950000D03*
X49000000Y32750000D03*
X54000000Y34950000D03*
D15*
X57275000Y34950000D03*
X45725000Y32750000D03*
%TD*%
D12*
%TO.C,S22*%
X54000000Y29000000D03*
D13*
X48500000Y29000000D03*
X59500000Y29000000D03*
D16*
X49000000Y25200000D03*
X54000000Y23100000D03*
X59000000Y25200000D03*
X54000000Y23100000D03*
%TD*%
D12*
%TO.C,S23*%
X54000000Y46000000D03*
D13*
X59500000Y46000000D03*
X48500000Y46000000D03*
D14*
X59000000Y49750000D03*
X54000000Y51950000D03*
X49000000Y49750000D03*
X54000000Y51950000D03*
D15*
X57275000Y51950000D03*
X45725000Y49750000D03*
%TD*%
D12*
%TO.C,S24*%
X54000000Y46000000D03*
D13*
X48500000Y46000000D03*
X59500000Y46000000D03*
D16*
X49000000Y42200000D03*
X54000000Y40100000D03*
X59000000Y42200000D03*
X54000000Y40100000D03*
%TD*%
D12*
%TO.C,S25*%
X72000000Y19000000D03*
D13*
X77500000Y19000000D03*
X66500000Y19000000D03*
D14*
X77000000Y22750000D03*
X72000000Y24950000D03*
X67000000Y22750000D03*
X72000000Y24950000D03*
D15*
X75275000Y24950000D03*
X63725000Y22750000D03*
%TD*%
D12*
%TO.C,S26*%
X72000000Y19000000D03*
D13*
X66500000Y19000000D03*
X77500000Y19000000D03*
D16*
X67000000Y15200000D03*
X72000000Y13100000D03*
X77000000Y15200000D03*
X72000000Y13100000D03*
%TD*%
D12*
%TO.C,S27*%
X72000000Y36000000D03*
D13*
X77500000Y36000000D03*
X66500000Y36000000D03*
D14*
X77000000Y39750000D03*
X72000000Y41950000D03*
X67000000Y39750000D03*
X72000000Y41950000D03*
D15*
X75275000Y41950000D03*
X63725000Y39750000D03*
%TD*%
D12*
%TO.C,S28*%
X72000000Y36000000D03*
D13*
X66500000Y36000000D03*
X77500000Y36000000D03*
D16*
X67000000Y32200000D03*
X72000000Y30100000D03*
X77000000Y32200000D03*
X72000000Y30100000D03*
%TD*%
D12*
%TO.C,S29*%
X49000000Y-7000000D03*
D13*
X54500000Y-7000000D03*
X43500000Y-7000000D03*
D14*
X54000000Y-3250000D03*
X49000000Y-1050000D03*
X44000000Y-3250000D03*
X49000000Y-1050000D03*
D15*
X52275000Y-1050000D03*
X40725000Y-3250000D03*
%TD*%
D12*
%TO.C,S30*%
X49000000Y-7000000D03*
D13*
X43500000Y-7000000D03*
X54500000Y-7000000D03*
D16*
X44000000Y-10800000D03*
X49000000Y-12900000D03*
X54000000Y-10800000D03*
X49000000Y-12900000D03*
%TD*%
D12*
%TO.C,S31*%
X70000000Y-10000000D03*
D13*
X75168309Y-11881111D03*
X64831691Y-8118889D03*
D14*
X75981039Y-8186253D03*
X72035020Y-4408829D03*
X66584112Y-4766052D03*
X72035020Y-4408829D03*
D17*
X75112513Y-5528945D03*
X63506619Y-3645936D03*
%TD*%
D12*
%TO.C,S32*%
X70000000Y-10000000D03*
D13*
X64831691Y-8118889D03*
X75168309Y-11881111D03*
D16*
X64001860Y-11860731D03*
X67982081Y-15544186D03*
X73398787Y-15280933D03*
X67982081Y-15544186D03*
%TD*%
D12*
%TO.C,S33*%
X87083752Y-21538866D03*
D13*
X91476247Y-24848849D03*
X82691257Y-18228883D03*
D14*
X93333736Y-21553058D03*
X90664551Y-16786985D03*
X85347381Y-15534908D03*
X90664551Y-16786985D03*
D18*
X93280083Y-18757929D03*
X82731849Y-13563964D03*
%TD*%
D12*
%TO.C,S34*%
X87083752Y-21538866D03*
D13*
X82691257Y-18228883D03*
X91476247Y-24848849D03*
D16*
X80803677Y-21564606D03*
X83533043Y-26250816D03*
X88790032Y-27582756D03*
X83533043Y-26250816D03*
%TD*%
D19*
%TO.C,MCU1*%
X83380000Y38970000D03*
X83380000Y36430000D03*
X83380000Y33890000D03*
X83380000Y31350000D03*
X83380000Y28810000D03*
X83380000Y26270000D03*
X83380000Y23730000D03*
X83380000Y21190000D03*
X83380000Y18650000D03*
X83380000Y16110000D03*
X83380000Y13570000D03*
X83380000Y11030000D03*
X98620000Y11030000D03*
X98620000Y13570000D03*
X98620000Y16110000D03*
X98620000Y18650000D03*
X98620000Y21190000D03*
X98620000Y23730000D03*
X98620000Y26270000D03*
X98620000Y28810000D03*
X98620000Y31350000D03*
X98620000Y33890000D03*
X98620000Y36430000D03*
X98620000Y38970000D03*
D20*
X85158000Y38970000D03*
D21*
X86174000Y38970000D03*
D22*
X83380000Y38970000D03*
D20*
X85158000Y36430000D03*
D21*
X86174000Y36430000D03*
D20*
X85158000Y33890000D03*
D21*
X86174000Y33890000D03*
D20*
X85158000Y31350000D03*
D21*
X86174000Y31350000D03*
D20*
X85158000Y28810000D03*
D21*
X86174000Y28810000D03*
D20*
X85158000Y26270000D03*
D21*
X86174000Y26270000D03*
D20*
X85158000Y23730000D03*
D21*
X86174000Y23730000D03*
D20*
X85158000Y21190000D03*
D21*
X86174000Y21190000D03*
D20*
X85158000Y18650000D03*
D21*
X86174000Y18650000D03*
D20*
X85158000Y16110000D03*
D21*
X86174000Y16110000D03*
D20*
X85158000Y13570000D03*
D21*
X86174000Y13570000D03*
D20*
X85158000Y11030000D03*
D21*
X86174000Y11030000D03*
D23*
X95826000Y38970000D03*
X95826000Y33890000D03*
D24*
X96842000Y33890000D03*
X96842000Y38970000D03*
D23*
X95826000Y36430000D03*
X95826000Y31350000D03*
D24*
X96842000Y36430000D03*
X96842000Y31350000D03*
D23*
X95826000Y26270000D03*
X95826000Y23730000D03*
D24*
X96842000Y23730000D03*
D23*
X95826000Y21190000D03*
X95826000Y11030000D03*
D24*
X96842000Y21190000D03*
X96842000Y11030000D03*
D23*
X95826000Y18650000D03*
D24*
X96842000Y28810000D03*
X96842000Y26270000D03*
X96842000Y18650000D03*
D23*
X95826000Y16110000D03*
D24*
X96842000Y16110000D03*
X96842000Y13570000D03*
D23*
X95826000Y13570000D03*
X95826000Y28810000D03*
%TD*%
D25*
%TO.C,*%
X97330000Y-7500000D03*
X97330000Y-4500000D03*
D26*
X95570000Y-8250000D03*
X95570000Y-5250000D03*
X95570000Y-3750000D03*
D27*
X98430000Y-9650000D03*
X98430000Y-2350000D03*
X96220000Y-2350000D03*
X96220000Y-9650000D03*
D25*
X97330000Y-7500000D03*
X97330000Y-4500000D03*
%TD*%
D28*
%TO.C,*%
X37700000Y-5000000D03*
X34300000Y-5000000D03*
%TD*%
D29*
%TO.C,*%
X91750000Y5000000D03*
X90250000Y5000000D03*
%TD*%
M02*
