%TF.GenerationSoftware,KiCad,Pcbnew,6.0.5-2.fc36*%
%TF.CreationDate,2022-05-30T19:14:04+02:00*%
%TF.ProjectId,main,6d61696e-2e6b-4696-9361-645f70636258,v1.0.0*%
%TF.SameCoordinates,Original*%
%TF.FileFunction,Copper,L2,Bot*%
%TF.FilePolarity,Positive*%
%FSLAX46Y46*%
G04 Gerber Fmt 4.6, Leading zero omitted, Abs format (unit mm)*
G04 Created by KiCad (PCBNEW 6.0.5-2.fc36) date 2022-05-30 19:14:04*
%MOMM*%
%LPD*%
G01*
G04 APERTURE LIST*
G04 Aperture macros list*
%AMRotRect*
0 Rectangle, with rotation*
0 The origin of the aperture is its center*
0 $1 length*
0 $2 width*
0 $3 Rotation angle, in degrees counterclockwise*
0 Add horizontal line*
21,1,$1,$2,0,0,$3*%
%AMFreePoly0*
4,1,5,0.125000,-0.500000,-0.125000,-0.500000,-0.125000,0.500000,0.125000,0.500000,0.125000,-0.500000,0.125000,-0.500000,$1*%
%AMFreePoly1*
4,1,6,0.600000,-0.250000,-0.600000,-0.250000,-0.600000,1.000000,0.000000,0.400000,0.600000,1.000000,0.600000,-0.250000,0.600000,-0.250000,$1*%
%AMFreePoly2*
4,1,6,0.600000,0.200000,0.000000,-0.400000,-0.600000,0.200000,-0.600000,0.400000,0.600000,0.400000,0.600000,0.200000,0.600000,0.200000,$1*%
%AMFreePoly3*
4,1,49,0.004773,0.123721,0.009154,0.124665,0.028961,0.117240,0.062500,0.108253,0.068237,0.102516,0.075053,0.099961,0.087617,0.083136,0.108253,0.062500,0.111178,0.051584,0.117161,0.043572,0.118539,0.024114,0.125000,0.000000,0.121239,-0.014035,0.122131,-0.026629,0.113759,-0.041951,0.108253,-0.062500,0.095644,-0.075109,0.088389,-0.088388,-0.641000,-0.817776,-0.641000,-4.770224,
0.088389,-5.499612,0.109852,-5.528356,0.124665,-5.597154,0.099961,-5.663053,0.043572,-5.705161,-0.026629,-5.710131,-0.088388,-5.676389,-0.854388,-4.910388,-0.867707,-4.892552,-0.871189,-4.889530,-0.871982,-4.886826,-0.875852,-4.881644,-0.882331,-4.851549,-0.891000,-4.822000,-0.891000,-0.766000,-0.887805,-0.743969,-0.888131,-0.739371,-0.886780,-0.736898,-0.885852,-0.730498,-0.869151,-0.704632,
-0.854388,-0.677612,-0.088388,0.088389,-0.064606,0.106147,-0.062500,0.108253,-0.061385,0.108552,-0.059644,0.109852,-0.043806,0.113262,0.000000,0.125000,0.004773,0.123721,0.004773,0.123721,$1*%
G04 Aperture macros list end*
%TA.AperFunction,SMDPad,CuDef*%
%ADD10R,2.600000X2.600000*%
%TD*%
%TA.AperFunction,ComponentPad*%
%ADD11C,2.032000*%
%TD*%
%TA.AperFunction,SMDPad,CuDef*%
%ADD12RotRect,2.600000X2.600000X340.000000*%
%TD*%
%TA.AperFunction,SMDPad,CuDef*%
%ADD13RotRect,2.600000X2.600000X323.000000*%
%TD*%
%TA.AperFunction,ComponentPad*%
%ADD14C,1.600000*%
%TD*%
%TA.AperFunction,ComponentPad*%
%ADD15R,1.600000X1.600000*%
%TD*%
%TA.AperFunction,SMDPad,CuDef*%
%ADD16FreePoly0,90.000000*%
%TD*%
%TA.AperFunction,SMDPad,CuDef*%
%ADD17FreePoly1,90.000000*%
%TD*%
%TA.AperFunction,SMDPad,CuDef*%
%ADD18FreePoly2,90.000000*%
%TD*%
%TA.AperFunction,SMDPad,CuDef*%
%ADD19FreePoly0,270.000000*%
%TD*%
%TA.AperFunction,SMDPad,CuDef*%
%ADD20FreePoly2,270.000000*%
%TD*%
%TA.AperFunction,SMDPad,CuDef*%
%ADD21FreePoly1,270.000000*%
%TD*%
%TA.AperFunction,SMDPad,CuDef*%
%ADD22FreePoly3,90.000000*%
%TD*%
%TA.AperFunction,SMDPad,CuDef*%
%ADD23FreePoly3,270.000000*%
%TD*%
%TA.AperFunction,ComponentPad*%
%ADD24C,0.800000*%
%TD*%
%TA.AperFunction,SMDPad,CuDef*%
%ADD25R,0.700000X1.500000*%
%TD*%
%TA.AperFunction,SMDPad,CuDef*%
%ADD26R,1.000000X0.800000*%
%TD*%
%TA.AperFunction,ComponentPad*%
%ADD27C,0.600000*%
%TD*%
%TA.AperFunction,SMDPad,CuDef*%
%ADD28R,0.900000X1.700000*%
%TD*%
%TA.AperFunction,ComponentPad*%
%ADD29C,1.000000*%
%TD*%
%TA.AperFunction,Conductor*%
%ADD30C,0.250000*%
%TD*%
G04 APERTURE END LIST*
D10*
%TO.P,S1,1*%
%TO.N,P10*%
X-3275000Y5950000D03*
%TO.P,S1,2*%
%TO.N,GND*%
X8275000Y3750000D03*
%TD*%
D11*
%TO.P,S2,1*%
%TO.N,P10*%
X-5000000Y-3800000D03*
%TO.P,S2,2*%
%TO.N,GND*%
X0Y-5900000D03*
%TO.P,S2,1*%
%TO.N,P10*%
X5000000Y-3800000D03*
%TO.P,S2,2*%
%TO.N,GND*%
X0Y-5900000D03*
%TD*%
D10*
%TO.P,S3,1*%
%TO.N,P9*%
X-3275000Y22950000D03*
%TO.P,S3,2*%
%TO.N,GND*%
X8275000Y20750000D03*
%TD*%
D11*
%TO.P,S4,1*%
%TO.N,P9*%
X-5000000Y13200000D03*
%TO.P,S4,2*%
%TO.N,GND*%
X0Y11100000D03*
%TO.P,S4,1*%
%TO.N,P9*%
X5000000Y13200000D03*
%TO.P,S4,2*%
%TO.N,GND*%
X0Y11100000D03*
%TD*%
D10*
%TO.P,S5,1*%
%TO.N,P18*%
X-3275000Y39950000D03*
%TO.P,S5,2*%
%TO.N,GND*%
X8275000Y37750000D03*
%TD*%
D11*
%TO.P,S6,1*%
%TO.N,P18*%
X-5000000Y30200000D03*
%TO.P,S6,2*%
%TO.N,GND*%
X0Y28100000D03*
%TO.P,S6,1*%
%TO.N,P18*%
X5000000Y30200000D03*
%TO.P,S6,2*%
%TO.N,GND*%
X0Y28100000D03*
%TD*%
D10*
%TO.P,S7,1*%
%TO.N,P8*%
X14725000Y23950000D03*
%TO.P,S7,2*%
%TO.N,GND*%
X26275000Y21750000D03*
%TD*%
D11*
%TO.P,S8,1*%
%TO.N,P8*%
X13000000Y14200000D03*
%TO.P,S8,2*%
%TO.N,GND*%
X18000000Y12100000D03*
%TO.P,S8,1*%
%TO.N,P8*%
X23000000Y14200000D03*
%TO.P,S8,2*%
%TO.N,GND*%
X18000000Y12100000D03*
%TD*%
D10*
%TO.P,S9,1*%
%TO.N,P3*%
X14725000Y40950000D03*
%TO.P,S9,2*%
%TO.N,GND*%
X26275000Y38750000D03*
%TD*%
D11*
%TO.P,S10,1*%
%TO.N,P3*%
X13000000Y31200000D03*
%TO.P,S10,2*%
%TO.N,GND*%
X18000000Y29100000D03*
%TO.P,S10,1*%
%TO.N,P3*%
X23000000Y31200000D03*
%TO.P,S10,2*%
%TO.N,GND*%
X18000000Y29100000D03*
%TD*%
D10*
%TO.P,S11,1*%
%TO.N,P19*%
X14725000Y57950000D03*
%TO.P,S11,2*%
%TO.N,GND*%
X26275000Y55750000D03*
%TD*%
D11*
%TO.P,S12,1*%
%TO.N,P19*%
X13000000Y48200000D03*
%TO.P,S12,2*%
%TO.N,GND*%
X18000000Y46100000D03*
%TO.P,S12,1*%
%TO.N,P19*%
X23000000Y48200000D03*
%TO.P,S12,2*%
%TO.N,GND*%
X18000000Y46100000D03*
%TD*%
D10*
%TO.P,S13,1*%
%TO.N,P7*%
X32725000Y25950000D03*
%TO.P,S13,2*%
%TO.N,GND*%
X44275000Y23750000D03*
%TD*%
D11*
%TO.P,S14,1*%
%TO.N,P7*%
X31000000Y16200000D03*
%TO.P,S14,2*%
%TO.N,GND*%
X36000000Y14100000D03*
%TO.P,S14,1*%
%TO.N,P7*%
X41000000Y16200000D03*
%TO.P,S14,2*%
%TO.N,GND*%
X36000000Y14100000D03*
%TD*%
D10*
%TO.P,S15,1*%
%TO.N,P2*%
X32725000Y42950000D03*
%TO.P,S15,2*%
%TO.N,GND*%
X44275000Y40750000D03*
%TD*%
D11*
%TO.P,S16,1*%
%TO.N,P2*%
X31000000Y33200000D03*
%TO.P,S16,2*%
%TO.N,GND*%
X36000000Y31100000D03*
%TO.P,S16,1*%
%TO.N,P2*%
X41000000Y33200000D03*
%TO.P,S16,2*%
%TO.N,GND*%
X36000000Y31100000D03*
%TD*%
D10*
%TO.P,S17,1*%
%TO.N,P20*%
X32725000Y59950000D03*
%TO.P,S17,2*%
%TO.N,GND*%
X44275000Y57750000D03*
%TD*%
D11*
%TO.P,S18,1*%
%TO.N,P20*%
X31000000Y50200000D03*
%TO.P,S18,2*%
%TO.N,GND*%
X36000000Y48100000D03*
%TO.P,S18,1*%
%TO.N,P20*%
X41000000Y50200000D03*
%TO.P,S18,2*%
%TO.N,GND*%
X36000000Y48100000D03*
%TD*%
D10*
%TO.P,S19,1*%
%TO.N,P6*%
X50725000Y17950000D03*
%TO.P,S19,2*%
%TO.N,GND*%
X62275000Y15750000D03*
%TD*%
D11*
%TO.P,S20,1*%
%TO.N,P6*%
X49000000Y8200000D03*
%TO.P,S20,2*%
%TO.N,GND*%
X54000000Y6100000D03*
%TO.P,S20,1*%
%TO.N,P6*%
X59000000Y8200000D03*
%TO.P,S20,2*%
%TO.N,GND*%
X54000000Y6100000D03*
%TD*%
D10*
%TO.P,S21,1*%
%TO.N,P4*%
X50725000Y34950000D03*
%TO.P,S21,2*%
%TO.N,GND*%
X62275000Y32750000D03*
%TD*%
D11*
%TO.P,S22,1*%
%TO.N,P4*%
X49000000Y25200000D03*
%TO.P,S22,2*%
%TO.N,GND*%
X54000000Y23100000D03*
%TO.P,S22,1*%
%TO.N,P4*%
X59000000Y25200000D03*
%TO.P,S22,2*%
%TO.N,GND*%
X54000000Y23100000D03*
%TD*%
D10*
%TO.P,S23,1*%
%TO.N,P21*%
X50725000Y51950000D03*
%TO.P,S23,2*%
%TO.N,GND*%
X62275000Y49750000D03*
%TD*%
D11*
%TO.P,S24,1*%
%TO.N,P21*%
X49000000Y42200000D03*
%TO.P,S24,2*%
%TO.N,GND*%
X54000000Y40100000D03*
%TO.P,S24,1*%
%TO.N,P21*%
X59000000Y42200000D03*
%TO.P,S24,2*%
%TO.N,GND*%
X54000000Y40100000D03*
%TD*%
D10*
%TO.P,S25,1*%
%TO.N,P5*%
X68725000Y24950000D03*
%TO.P,S25,2*%
%TO.N,GND*%
X80275000Y22750000D03*
%TD*%
D11*
%TO.P,S26,1*%
%TO.N,P5*%
X67000000Y15200000D03*
%TO.P,S26,2*%
%TO.N,GND*%
X72000000Y13100000D03*
%TO.P,S26,1*%
%TO.N,P5*%
X77000000Y15200000D03*
%TO.P,S26,2*%
%TO.N,GND*%
X72000000Y13100000D03*
%TD*%
D10*
%TO.P,S27,1*%
%TO.N,P1*%
X68725000Y41950000D03*
%TO.P,S27,2*%
%TO.N,GND*%
X80275000Y39750000D03*
%TD*%
D11*
%TO.P,S28,1*%
%TO.N,P1*%
X67000000Y32200000D03*
%TO.P,S28,2*%
%TO.N,GND*%
X72000000Y30100000D03*
%TO.P,S28,1*%
%TO.N,P1*%
X77000000Y32200000D03*
%TO.P,S28,2*%
%TO.N,GND*%
X72000000Y30100000D03*
%TD*%
D10*
%TO.P,S29,1*%
%TO.N,P16*%
X45725000Y-1050000D03*
%TO.P,S29,2*%
%TO.N,GND*%
X57275000Y-3250000D03*
%TD*%
D11*
%TO.P,S30,1*%
%TO.N,P16*%
X44000000Y-10800000D03*
%TO.P,S30,2*%
%TO.N,GND*%
X49000000Y-12900000D03*
%TO.P,S30,1*%
%TO.N,P16*%
X54000000Y-10800000D03*
%TO.P,S30,2*%
%TO.N,GND*%
X49000000Y-12900000D03*
%TD*%
D12*
%TO.P,S31,1*%
%TO.N,P14*%
X68957527Y-3288713D03*
%TO.P,S31,2*%
%TO.N,GND*%
X79058532Y-9306369D03*
%TD*%
D11*
%TO.P,S32,1*%
%TO.N,P14*%
X64001860Y-11860731D03*
%TO.P,S32,2*%
%TO.N,GND*%
X67982081Y-15544186D03*
%TO.P,S32,1*%
%TO.N,P14*%
X73398787Y-15280933D03*
%TO.P,S32,2*%
%TO.N,GND*%
X67982081Y-15544186D03*
%TD*%
D13*
%TO.P,S33,1*%
%TO.N,P15*%
X88049020Y-14816041D03*
%TO.P,S33,2*%
%TO.N,GND*%
X95949267Y-23524002D03*
%TD*%
D11*
%TO.P,S34,1*%
%TO.N,P15*%
X80803677Y-21564606D03*
%TO.P,S34,2*%
%TO.N,GND*%
X83533043Y-26250816D03*
%TO.P,S34,1*%
%TO.N,P15*%
X88790032Y-27582756D03*
%TO.P,S34,2*%
%TO.N,GND*%
X83533043Y-26250816D03*
%TD*%
D14*
%TO.P,MCU1,*%
%TO.N,*%
X83380000Y38970000D03*
X83380000Y36430000D03*
X83380000Y33890000D03*
X83380000Y31350000D03*
X83380000Y28810000D03*
X83380000Y26270000D03*
X83380000Y23730000D03*
X83380000Y21190000D03*
X83380000Y18650000D03*
X83380000Y16110000D03*
X83380000Y13570000D03*
X83380000Y11030000D03*
X98620000Y11030000D03*
X98620000Y13570000D03*
X98620000Y16110000D03*
X98620000Y18650000D03*
X98620000Y21190000D03*
X98620000Y23730000D03*
X98620000Y26270000D03*
X98620000Y28810000D03*
X98620000Y31350000D03*
X98620000Y33890000D03*
X98620000Y36430000D03*
X98620000Y38970000D03*
D15*
X98620000Y38970000D03*
D16*
X84650000Y38970000D03*
D17*
%TO.P,MCU1,1*%
%TO.N,RAW*%
X86174000Y38970000D03*
D18*
%TO.P,MCU1,*%
%TO.N,*%
X85158000Y38970000D03*
D16*
X84650000Y36430000D03*
D18*
X85158000Y36430000D03*
D17*
%TO.P,MCU1,2*%
%TO.N,N/C*%
X86174000Y36430000D03*
D16*
%TO.P,MCU1,*%
%TO.N,*%
X84650000Y33890000D03*
D18*
X85158000Y33890000D03*
D17*
%TO.P,MCU1,3*%
%TO.N,RST*%
X86174000Y33890000D03*
D16*
%TO.P,MCU1,*%
%TO.N,*%
X84650000Y31350000D03*
D18*
X85158000Y31350000D03*
D17*
%TO.P,MCU1,4*%
%TO.N,VCC*%
X86174000Y31350000D03*
D16*
%TO.P,MCU1,*%
%TO.N,*%
X84650000Y28810000D03*
D18*
X85158000Y28810000D03*
D17*
%TO.P,MCU1,5*%
%TO.N,P21*%
X86174000Y28810000D03*
D16*
%TO.P,MCU1,*%
%TO.N,*%
X84650000Y26270000D03*
D18*
X85158000Y26270000D03*
D17*
%TO.P,MCU1,6*%
%TO.N,P20*%
X86174000Y26270000D03*
D16*
%TO.P,MCU1,*%
%TO.N,*%
X84650000Y23730000D03*
D18*
X85158000Y23730000D03*
D17*
%TO.P,MCU1,7*%
%TO.N,P19*%
X86174000Y23730000D03*
D16*
%TO.P,MCU1,*%
%TO.N,*%
X84650000Y21190000D03*
D18*
X85158000Y21190000D03*
D17*
%TO.P,MCU1,8*%
%TO.N,P18*%
X86174000Y21190000D03*
D16*
%TO.P,MCU1,*%
%TO.N,*%
X84650000Y18650000D03*
D18*
X85158000Y18650000D03*
D17*
%TO.P,MCU1,9*%
%TO.N,P15*%
X86174000Y18650000D03*
D16*
%TO.P,MCU1,*%
%TO.N,*%
X84650000Y16110000D03*
D18*
X85158000Y16110000D03*
D17*
%TO.P,MCU1,10*%
%TO.N,P14*%
X86174000Y16110000D03*
D16*
%TO.P,MCU1,*%
%TO.N,*%
X84650000Y13570000D03*
D18*
X85158000Y13570000D03*
D17*
%TO.P,MCU1,11*%
%TO.N,P16*%
X86174000Y13570000D03*
D16*
%TO.P,MCU1,*%
%TO.N,*%
X84650000Y11030000D03*
D18*
X85158000Y11030000D03*
D17*
%TO.P,MCU1,12*%
%TO.N,P10*%
X86174000Y11030000D03*
D19*
%TO.P,MCU1,*%
%TO.N,*%
X97350000Y38970000D03*
D20*
X96842000Y38970000D03*
D21*
%TO.P,MCU1,24*%
%TO.N,P1*%
X95826000Y38970000D03*
%TO.P,MCU1,23*%
%TO.N,P0*%
X95826000Y36430000D03*
D19*
%TO.P,MCU1,*%
%TO.N,*%
X97350000Y36430000D03*
D20*
X96842000Y36430000D03*
D21*
%TO.P,MCU1,22*%
%TO.N,GND*%
X95826000Y33890000D03*
D19*
%TO.P,MCU1,*%
%TO.N,*%
X97350000Y33890000D03*
D20*
X96842000Y33890000D03*
D21*
%TO.P,MCU1,21*%
%TO.N,GND*%
X95826000Y31350000D03*
D19*
%TO.P,MCU1,*%
%TO.N,*%
X97350000Y31350000D03*
D20*
X96842000Y31350000D03*
D21*
%TO.P,MCU1,20*%
%TO.N,P2*%
X95826000Y28810000D03*
D19*
%TO.P,MCU1,*%
%TO.N,*%
X97350000Y28810000D03*
D20*
X96842000Y28810000D03*
D21*
%TO.P,MCU1,19*%
%TO.N,P3*%
X95826000Y26270000D03*
D19*
%TO.P,MCU1,*%
%TO.N,*%
X97350000Y26270000D03*
D20*
X96842000Y26270000D03*
D21*
%TO.P,MCU1,18*%
%TO.N,P4*%
X95826000Y23730000D03*
D19*
%TO.P,MCU1,*%
%TO.N,*%
X97350000Y23730000D03*
D20*
X96842000Y23730000D03*
D21*
%TO.P,MCU1,17*%
%TO.N,P5*%
X95826000Y21190000D03*
D19*
%TO.P,MCU1,*%
%TO.N,*%
X97350000Y21190000D03*
D20*
X96842000Y21190000D03*
D21*
%TO.P,MCU1,16*%
%TO.N,P6*%
X95826000Y18650000D03*
D19*
%TO.P,MCU1,*%
%TO.N,*%
X97350000Y18650000D03*
D20*
X96842000Y18650000D03*
D21*
%TO.P,MCU1,15*%
%TO.N,P7*%
X95826000Y16110000D03*
D19*
%TO.P,MCU1,*%
%TO.N,*%
X97350000Y16110000D03*
D20*
X96842000Y16110000D03*
D21*
%TO.P,MCU1,14*%
%TO.N,P8*%
X95826000Y13570000D03*
D19*
%TO.P,MCU1,*%
%TO.N,*%
X97350000Y13570000D03*
D20*
X96842000Y13570000D03*
D21*
%TO.P,MCU1,13*%
%TO.N,P9*%
X95826000Y11030000D03*
D19*
%TO.P,MCU1,*%
%TO.N,*%
X97350000Y11030000D03*
D20*
X96842000Y11030000D03*
D22*
%TO.P,MCU1,23*%
%TO.N,P0*%
X90238000Y36430000D03*
D23*
%TO.P,MCU1,2*%
%TO.N,GND*%
X91762000Y36430000D03*
D24*
X91762000Y36430000D03*
%TO.P,MCU1,23*%
%TO.N,P0*%
X90238000Y36430000D03*
%TO.P,MCU1,24*%
%TO.N,P1*%
X90238000Y38970000D03*
%TO.P,MCU1,1*%
%TO.N,RAW*%
X91762000Y38970000D03*
D22*
%TO.P,MCU1,24*%
%TO.N,P1*%
X90238000Y38970000D03*
D23*
%TO.P,MCU1,1*%
%TO.N,RAW*%
X91762000Y38970000D03*
D24*
%TO.P,MCU1,22*%
%TO.N,GND*%
X90238000Y33890000D03*
%TO.P,MCU1,3*%
%TO.N,RST*%
X91762000Y33890000D03*
D22*
%TO.P,MCU1,22*%
%TO.N,GND*%
X90238000Y33890000D03*
D23*
%TO.P,MCU1,3*%
%TO.N,RST*%
X91762000Y33890000D03*
D24*
%TO.P,MCU1,21*%
%TO.N,GND*%
X90238000Y31350000D03*
%TO.P,MCU1,4*%
%TO.N,VCC*%
X91762000Y31350000D03*
D22*
%TO.P,MCU1,21*%
%TO.N,GND*%
X90238000Y31350000D03*
D23*
%TO.P,MCU1,4*%
%TO.N,VCC*%
X91762000Y31350000D03*
D24*
%TO.P,MCU1,20*%
%TO.N,P2*%
X90238000Y28810000D03*
%TO.P,MCU1,5*%
%TO.N,P21*%
X91762000Y28810000D03*
D22*
%TO.P,MCU1,20*%
%TO.N,P2*%
X90238000Y28810000D03*
D23*
%TO.P,MCU1,5*%
%TO.N,P21*%
X91762000Y28810000D03*
D24*
%TO.P,MCU1,19*%
%TO.N,P3*%
X90238000Y26270000D03*
%TO.P,MCU1,6*%
%TO.N,P20*%
X91762000Y26270000D03*
D22*
%TO.P,MCU1,19*%
%TO.N,P3*%
X90238000Y26270000D03*
D23*
%TO.P,MCU1,6*%
%TO.N,P20*%
X91762000Y26270000D03*
D24*
%TO.P,MCU1,18*%
%TO.N,P4*%
X90238000Y23730000D03*
%TO.P,MCU1,7*%
%TO.N,P19*%
X91762000Y23730000D03*
D22*
%TO.P,MCU1,18*%
%TO.N,P4*%
X90238000Y23730000D03*
D23*
%TO.P,MCU1,7*%
%TO.N,P19*%
X91762000Y23730000D03*
D24*
%TO.P,MCU1,17*%
%TO.N,P5*%
X90238000Y21190000D03*
%TO.P,MCU1,8*%
%TO.N,P18*%
X91762000Y21190000D03*
D22*
%TO.P,MCU1,17*%
%TO.N,P5*%
X90238000Y21190000D03*
D23*
%TO.P,MCU1,8*%
%TO.N,P18*%
X91762000Y21190000D03*
D24*
%TO.P,MCU1,16*%
%TO.N,P6*%
X90238000Y18650000D03*
%TO.P,MCU1,9*%
%TO.N,P15*%
X91762000Y18650000D03*
D22*
%TO.P,MCU1,16*%
%TO.N,P6*%
X90238000Y18650000D03*
D23*
%TO.P,MCU1,9*%
%TO.N,P15*%
X91762000Y18650000D03*
D24*
%TO.P,MCU1,15*%
%TO.N,P7*%
X90238000Y16110000D03*
%TO.P,MCU1,10*%
%TO.N,P14*%
X91762000Y16110000D03*
D22*
%TO.P,MCU1,15*%
%TO.N,P7*%
X90238000Y16110000D03*
D23*
%TO.P,MCU1,10*%
%TO.N,P14*%
X91762000Y16110000D03*
D24*
%TO.P,MCU1,14*%
%TO.N,P8*%
X90238000Y13570000D03*
%TO.P,MCU1,11*%
%TO.N,P16*%
X91762000Y13570000D03*
D22*
%TO.P,MCU1,14*%
%TO.N,P8*%
X90238000Y13570000D03*
D23*
%TO.P,MCU1,11*%
%TO.N,P16*%
X91762000Y13570000D03*
D24*
%TO.P,MCU1,13*%
%TO.N,P9*%
X90238000Y11030000D03*
%TO.P,MCU1,12*%
%TO.N,P10*%
X91762000Y11030000D03*
D22*
%TO.P,MCU1,13*%
%TO.N,P9*%
X90238000Y11030000D03*
D23*
%TO.P,MCU1,12*%
%TO.N,P10*%
X91762000Y11030000D03*
%TD*%
D25*
%TO.P,,1*%
%TO.N,pos*%
X95570000Y-3750000D03*
%TO.P,,2*%
%TO.N,RAW*%
X95570000Y-6750000D03*
%TO.P,,3*%
%TO.N,N/C*%
X95570000Y-8250000D03*
D26*
%TO.P,,*%
%TO.N,*%
X98430000Y-2350000D03*
X98430000Y-9650000D03*
X96220000Y-9650000D03*
X96220000Y-2350000D03*
%TD*%
D27*
%TO.P,REF\u002A\u002A,1*%
%TO.N,RAW*%
X93000000Y-4000000D03*
%TD*%
%TO.P,REF\u002A\u002A,1*%
%TO.N,pos*%
X98000000Y5000000D03*
%TD*%
%TO.P,REF\u002A\u002A,1*%
%TO.N,GND*%
X36000000Y5000000D03*
%TD*%
%TO.P,REF\u002A\u002A,1*%
%TO.N,RST*%
X38000000Y5000000D03*
%TD*%
D28*
%TO.P,,1*%
%TO.N,RST*%
X34300000Y-5000000D03*
%TO.P,,2*%
%TO.N,GND*%
X37700000Y-5000000D03*
%TD*%
D29*
%TO.P,,1*%
%TO.N,pos*%
X91750000Y5000000D03*
%TO.P,,2*%
%TO.N,GND*%
X90250000Y5000000D03*
%TD*%
D30*
%TO.N,RAW*%
X81164053Y-23100000D02*
X82144188Y-22119865D01*
X78500000Y31700000D02*
X77600000Y30800000D01*
X60800000Y-3525978D02*
X60800000Y-11400000D01*
X35800000Y-5325489D02*
X35800000Y-4400000D01*
X81465836Y-18765836D02*
X81465836Y-15534164D01*
X34950978Y-6174511D02*
X35800000Y-5325489D01*
X32849520Y-5638802D02*
X33385229Y-6174511D01*
X40082141Y7717859D02*
X39834666Y7717859D01*
X71867859Y32967859D02*
X71867859Y33000867D01*
X91762000Y38970000D02*
X88657959Y42074041D01*
X32849520Y732713D02*
X32849520Y-5638802D01*
X45950480Y34695937D02*
X45950480Y13586198D01*
X82144188Y-22119865D02*
X82144188Y-19444188D01*
X88657959Y42074041D02*
X75974041Y42074041D01*
X56449501Y824521D02*
X60800000Y-3525978D01*
X45950480Y13586198D02*
X40082141Y7717859D01*
X75974041Y42074041D02*
X74675959Y40775959D01*
X39834666Y7717859D02*
X32849520Y732713D01*
X41024521Y824521D02*
X56449501Y824521D01*
X74675959Y40775959D02*
X74675959Y36914082D01*
X60800000Y-11400000D02*
X72500000Y-23100000D01*
X74675959Y36914082D02*
X78500000Y33090041D01*
X81465836Y-15534164D02*
X93000000Y-4000000D01*
X48978104Y37723561D02*
X45950480Y34695937D01*
X72500000Y-23100000D02*
X81164053Y-23100000D01*
X74035718Y30800000D02*
X71867859Y32967859D01*
X78500000Y33090041D02*
X78500000Y31700000D01*
X77600000Y30800000D02*
X74035718Y30800000D01*
X33385229Y-6174511D02*
X34950978Y-6174511D01*
X67145165Y37723561D02*
X48978104Y37723561D01*
X35800000Y-4400000D02*
X41024521Y824521D01*
X71867859Y33000867D02*
X67145165Y37723561D01*
X82144188Y-19444188D02*
X81465836Y-18765836D01*
%TO.N,GND*%
X36000000Y5000000D02*
X32400000Y1400000D01*
X32400000Y1400000D02*
X32400000Y-5825000D01*
X32400000Y-5825000D02*
X33475000Y-6900000D01*
X33475000Y-6900000D02*
X35800000Y-6900000D01*
X35800000Y-6900000D02*
X37700000Y-5000000D01*
%TO.N,RST*%
X78313802Y30249520D02*
X79100000Y31035718D01*
X79100000Y36133008D02*
X77833008Y37400000D01*
X75125479Y40526453D02*
X76223547Y41624521D01*
X76223547Y41624521D02*
X81649501Y41624521D01*
X73950480Y30249520D02*
X78313802Y30249520D01*
X67725421Y36474579D02*
X73950480Y30249520D01*
X38000000Y5000000D02*
X46400000Y13400000D01*
X67725421Y36507587D02*
X67725421Y36474579D01*
X79100000Y31035718D02*
X79100000Y36133008D01*
X76699026Y37400000D02*
X75125479Y38973547D01*
X66958967Y37274041D02*
X67725421Y36507587D01*
X49164302Y37274041D02*
X66958967Y37274041D01*
X46400000Y34509739D02*
X49164302Y37274041D01*
X46400000Y13400000D02*
X46400000Y34509739D01*
X77833008Y37400000D02*
X76699026Y37400000D01*
X81899511Y36320189D02*
X83119700Y35100000D01*
X83119700Y35100000D02*
X90552000Y35100000D01*
X90552000Y35100000D02*
X91762000Y33890000D01*
X75125479Y38973547D02*
X75125479Y40526453D01*
X81649501Y41624521D02*
X81899511Y41374511D01*
X81899511Y41374511D02*
X81899511Y36320189D01*
%TO.N,GND*%
X72000000Y30100000D02*
X72300000Y29800000D01*
X72300000Y29800000D02*
X78500000Y29800000D01*
X78500000Y29800000D02*
X80275000Y31575000D01*
X80275000Y31575000D02*
X80275000Y39750000D01*
%TO.N,pos*%
X95570000Y-3750000D02*
X94970000Y-3150000D01*
X94970000Y-3150000D02*
X94970000Y1970000D01*
X94970000Y1970000D02*
X98000000Y5000000D01*
%TO.N,P15*%
X91762000Y18650000D02*
X90637489Y19774511D01*
X90637489Y19774511D02*
X82914211Y19774511D01*
X82914211Y19774511D02*
X80100000Y16960300D01*
X80100000Y16960300D02*
X80100000Y11400810D01*
X80100000Y11400810D02*
X61300000Y-7399190D01*
X61300000Y-7399190D02*
X61300000Y-11054641D01*
X61300000Y-11054641D02*
X71809965Y-21564606D01*
X71809965Y-21564606D02*
X80803677Y-21564606D01*
%TO.N,GND*%
X83533043Y-26250816D02*
X86205494Y-28923267D01*
X86205494Y-28923267D02*
X90550002Y-28923267D01*
X90550002Y-28923267D02*
X95949267Y-23524002D01*
X79058532Y-9306369D02*
X79058532Y-11516958D01*
X79058532Y-11516958D02*
X73475490Y-17100000D01*
X73475490Y-17100000D02*
X69537895Y-17100000D01*
X69537895Y-17100000D02*
X67982081Y-15544186D01*
X57275000Y-3250000D02*
X57275000Y-9420770D01*
X57275000Y-9420770D02*
X53795770Y-12900000D01*
X53795770Y-12900000D02*
X49000000Y-12900000D01*
X8275000Y3750000D02*
X925000Y11100000D01*
X925000Y11100000D02*
X0Y11100000D01*
X8275000Y3750000D02*
X8275000Y-2420770D01*
X4795770Y-5900000D02*
X0Y-5900000D01*
X8275000Y-2420770D02*
X4795770Y-5900000D01*
X26275000Y21750000D02*
X26275000Y15579230D01*
X27754230Y14100000D02*
X36000000Y14100000D01*
X26275000Y15579230D02*
X27754230Y14100000D01*
X62275000Y32750000D02*
X58200479Y36824521D01*
X50500000Y26600000D02*
X54000000Y23100000D01*
X58200479Y36824521D02*
X49350499Y36824521D01*
X49350499Y36824521D02*
X47125479Y34599501D01*
X47125479Y34599501D02*
X47125479Y28641513D01*
X47125479Y28641513D02*
X49166992Y26600000D01*
X49166992Y26600000D02*
X50500000Y26600000D01*
%TO.N,P4*%
X59000000Y25200000D02*
X60624521Y26824521D01*
X60624521Y26824521D02*
X72875479Y26824521D01*
X72875479Y26824521D02*
X75125479Y24574521D01*
X75125479Y24574521D02*
X75125479Y21973547D01*
X89108000Y22600000D02*
X90238000Y23730000D01*
X75125479Y21973547D02*
X76223547Y20875479D01*
X76223547Y20875479D02*
X81475179Y20875479D01*
X81475179Y20875479D02*
X83199700Y22600000D01*
X83199700Y22600000D02*
X89108000Y22600000D01*
%TO.N,GND*%
X80275000Y22750000D02*
X72925000Y30100000D01*
X72925000Y30100000D02*
X72000000Y30100000D01*
X72000000Y13100000D02*
X64925000Y13100000D01*
X64925000Y13100000D02*
X62275000Y15750000D01*
%TO.N,P2*%
X32725000Y42950000D02*
X32874521Y42800479D01*
X32874521Y42800479D02*
X32874521Y35074521D01*
X32874521Y35074521D02*
X31000000Y33200000D01*
%TO.N,GND*%
X26275000Y38750000D02*
X26275000Y36029230D01*
X26275000Y36029230D02*
X31204230Y31100000D01*
X31204230Y31100000D02*
X36000000Y31100000D01*
X36000000Y14100000D02*
X36000000Y5000000D01*
X72000000Y30100000D02*
X64925000Y30100000D01*
X64925000Y30100000D02*
X62275000Y32750000D01*
X80275000Y39750000D02*
X80275000Y35404700D01*
X80275000Y35404700D02*
X82914211Y32765489D01*
X82914211Y32765489D02*
X89113489Y32765489D01*
X89113489Y32765489D02*
X90238000Y33890000D01*
X62275000Y15750000D02*
X54925000Y23100000D01*
X54925000Y23100000D02*
X54000000Y23100000D01*
X62275000Y15750000D02*
X62275000Y9579230D01*
X62275000Y9579230D02*
X58795770Y6100000D01*
X58795770Y6100000D02*
X54000000Y6100000D01*
X44275000Y23750000D02*
X44275000Y27620770D01*
X44275000Y27620770D02*
X40795770Y31100000D01*
X36000000Y14100000D02*
X40795770Y14100000D01*
X44275000Y17579230D02*
X44275000Y23750000D01*
X40795770Y14100000D02*
X44275000Y17579230D01*
X44275000Y40750000D02*
X44275000Y34579230D01*
X44275000Y34579230D02*
X40795770Y31100000D01*
X40795770Y31100000D02*
X36000000Y31100000D01*
X54000000Y40100000D02*
X44925000Y40100000D01*
X44925000Y40100000D02*
X44275000Y40750000D01*
X36000000Y48100000D02*
X40795770Y48100000D01*
X40795770Y48100000D02*
X44275000Y51579230D01*
X44275000Y51579230D02*
X44275000Y57750000D01*
X26275000Y55750000D02*
X30484489Y51540511D01*
X30484489Y51540511D02*
X32559489Y51540511D01*
X32559489Y51540511D02*
X36000000Y48100000D01*
X8275000Y37750000D02*
X16625000Y46100000D01*
X16625000Y46100000D02*
X18000000Y46100000D01*
X0Y28100000D02*
X4795770Y28100000D01*
X4795770Y28100000D02*
X8275000Y31579230D01*
X8275000Y31579230D02*
X8275000Y37750000D01*
X0Y11100000D02*
X4795770Y11100000D01*
X4795770Y11100000D02*
X8275000Y14579230D01*
X8275000Y14579230D02*
X8275000Y20750000D01*
%TO.N,P18*%
X34200000Y47149520D02*
X35500000Y45849520D01*
X52872839Y44172838D02*
X56186188Y40859489D01*
X92972000Y22400000D02*
X91762000Y21190000D01*
X35500000Y45849520D02*
X46917472Y45849520D01*
X46917472Y45849520D02*
X48594154Y44172838D01*
X48594154Y44172838D02*
X52872839Y44172838D01*
X98900000Y22400000D02*
X92972000Y22400000D01*
X56186188Y40859489D02*
X63623771Y40859489D01*
X67038323Y44274041D02*
X96161677Y44274041D01*
X63623771Y40859489D02*
X67038323Y44274041D01*
X96161677Y44274041D02*
X100249520Y40186197D01*
X100249520Y40186197D02*
X100249520Y23749520D01*
X100249520Y23749520D02*
X98900000Y22400000D01*
%TO.N,P19*%
X92932000Y24900000D02*
X91762000Y23730000D01*
X99800000Y40000000D02*
X99800000Y25859700D01*
X99800000Y25859700D02*
X98840300Y24900000D01*
X95975479Y43824521D02*
X99800000Y40000000D01*
X56300000Y39800000D02*
X63200000Y39800000D01*
X52400000Y43700000D02*
X56300000Y39800000D01*
X67224521Y43824521D02*
X95975479Y43824521D01*
X63200000Y39800000D02*
X67224521Y43824521D01*
X46800000Y43700000D02*
X52400000Y43700000D01*
X98840300Y24900000D02*
X92932000Y24900000D01*
X45100000Y45400000D02*
X46800000Y43700000D01*
X25800000Y45400000D02*
X45100000Y45400000D01*
X23000000Y48200000D02*
X25800000Y45400000D01*
%TO.N,P18*%
X5924521Y35875479D02*
X4124521Y35875479D01*
X23933008Y53300000D02*
X26200000Y51033008D01*
X6725421Y35074579D02*
X5924521Y35875479D01*
X6725421Y31925421D02*
X6725421Y35074579D01*
X21100000Y57500974D02*
X21100000Y54999026D01*
X22799026Y53300000D02*
X23933008Y53300000D01*
X11100000Y47477986D02*
X11100000Y57800000D01*
X26200000Y51033008D02*
X26200000Y50300000D01*
X3125479Y39503465D02*
X11100000Y47477986D01*
X13200000Y59900000D02*
X18700974Y59900000D01*
X21100000Y54999026D02*
X22799026Y53300000D01*
X26200000Y50300000D02*
X29350480Y47149520D01*
X29350480Y47149520D02*
X34200000Y47149520D01*
X4124521Y35875479D02*
X3125479Y36874521D01*
X11100000Y57800000D02*
X13200000Y59900000D01*
X18700974Y59900000D02*
X21100000Y57500974D01*
X5000000Y30200000D02*
X6725421Y31925421D01*
X3125479Y36874521D02*
X3125479Y39503465D01*
%TO.N,GND*%
X62275000Y49750000D02*
X57474520Y54550480D01*
X57474520Y54550480D02*
X47474520Y54550480D01*
X47474520Y54550480D02*
X44275000Y57750000D01*
X90250000Y5000000D02*
X90250000Y1885099D01*
X90250000Y1885099D02*
X79058532Y-9306369D01*
%TO.N,RAW*%
X93000000Y-4000000D02*
X95570000Y-6570000D01*
X95570000Y-6570000D02*
X95570000Y-6750000D01*
%TO.N,RST*%
X38000000Y5000000D02*
X38000000Y-1300000D01*
X38000000Y-1300000D02*
X34300000Y-5000000D01*
%TO.N,P15*%
X88790032Y-27582756D02*
X89806031Y-26566757D01*
X89806031Y-26566757D02*
X89806031Y-18606031D01*
X89806031Y-18606031D02*
X88049020Y-16849020D01*
X88049020Y-16849020D02*
X88049020Y-14816041D01*
%TO.N,P14*%
X73398787Y-15280933D02*
X73398787Y-10444464D01*
X73398787Y-10444464D02*
X68957527Y-6003204D01*
X68957527Y-6003204D02*
X68957527Y-3288713D01*
%TO.N,P16*%
X54000000Y-10800000D02*
X54000000Y-9045677D01*
X54000000Y-9045677D02*
X46004323Y-1050000D01*
X46004323Y-1050000D02*
X45725000Y-1050000D01*
%TO.N,P4*%
X59000000Y25200000D02*
X59000000Y26954323D01*
X59000000Y26954323D02*
X51004323Y34950000D01*
X51004323Y34950000D02*
X50725000Y34950000D01*
%TO.N,P5*%
X77000000Y15200000D02*
X77000000Y16954323D01*
X77000000Y16954323D02*
X69004323Y24950000D01*
X69004323Y24950000D02*
X68725000Y24950000D01*
%TO.N,P6*%
X59000000Y8200000D02*
X59000000Y9954323D01*
X59000000Y9954323D02*
X51004323Y17950000D01*
X51004323Y17950000D02*
X50725000Y17950000D01*
%TO.N,P7*%
X41000000Y16200000D02*
X41000000Y17954323D01*
X41000000Y17954323D02*
X33004323Y25950000D01*
X33004323Y25950000D02*
X32725000Y25950000D01*
%TO.N,P8*%
X23000000Y14200000D02*
X23000000Y15954323D01*
X15004323Y23950000D02*
X14725000Y23950000D01*
X23000000Y15954323D02*
X15004323Y23950000D01*
%TO.N,P10*%
X5000000Y-3800000D02*
X5000000Y-2045677D01*
X5000000Y-2045677D02*
X-2995677Y5950000D01*
X-2995677Y5950000D02*
X-3275000Y5950000D01*
%TO.N,P9*%
X5000000Y13200000D02*
X5000000Y14954323D01*
X5000000Y14954323D02*
X-2995677Y22950000D01*
X-2995677Y22950000D02*
X-3275000Y22950000D01*
%TO.N,P18*%
X5000000Y30200000D02*
X5000000Y31954323D01*
X5000000Y31954323D02*
X-2995677Y39950000D01*
X-2995677Y39950000D02*
X-3275000Y39950000D01*
%TO.N,P3*%
X23000000Y31200000D02*
X23000000Y32954323D01*
X23000000Y32954323D02*
X15004323Y40950000D01*
X15004323Y40950000D02*
X14725000Y40950000D01*
%TO.N,P19*%
X23000000Y48200000D02*
X23000000Y49954323D01*
X23000000Y49954323D02*
X15004323Y57950000D01*
X15004323Y57950000D02*
X14725000Y57950000D01*
%TO.N,P20*%
X41000000Y50200000D02*
X41000000Y51954323D01*
X41000000Y51954323D02*
X33004323Y59950000D01*
X33004323Y59950000D02*
X32725000Y59950000D01*
%TO.N,P21*%
X59000000Y42200000D02*
X59000000Y43954323D01*
X59000000Y43954323D02*
X51004323Y51950000D01*
X51004323Y51950000D02*
X50725000Y51950000D01*
%TO.N,P1*%
X77000000Y32200000D02*
X77000000Y33954323D01*
X77000000Y33954323D02*
X69004323Y41950000D01*
X69004323Y41950000D02*
X68725000Y41950000D01*
%TD*%
M02*
