0
SECTION
2
HEADER
9
$INSUNITS
70
4
0
ENDSEC
0
SECTION
2
TABLES
0
TABLE
2
LTYPE
0
LTYPE
72
65
70
64
2
CONTINUOUS
3
______
73
0
40
0
0
ENDTAB
0
TABLE
2
LAYER
0
ENDTAB
0
ENDSEC
0
SECTION
2
ENTITIES
0
LINE
8
0
10
-6.75
20
-8.75
11
38.25
21
-8.75
0
LINE
8
0
10
-8.75
20
-6.75
11
-8.75
21
40.75
0
LINE
8
0
10
-6.75
20
42.75
11
7.25
21
42.75
0
LINE
8
0
10
9.25
20
44.75
11
9.25
21
58.75
0
LINE
8
0
10
11.25
20
60.75
11
27.25
21
60.75
0
LINE
8
0
10
44.75
20
56.75
11
44.75
21
60.75
0
LINE
8
0
10
42.75
20
62.75
11
27.25
21
62.75
0
LINE
8
0
10
27.25
20
62.75
11
27.25
21
60.75
0
LINE
8
0
10
62.75
20
46.75
11
62.75
21
52.75
0
LINE
8
0
10
46.75
20
54.75
11
60.75
21
54.75
0
LINE
8
0
10
64.75
20
44.75
11
100
21
44.75
0
LINE
8
0
10
42.25
20
-15.75
11
51.0906396
21
-15.75
0
LINE
8
0
10
40.25
20
-10.75
11
40.25
21
-13.75
0
LINE
8
0
10
51.7746798
20
-15.8706148
11
77.1182149
21
-25.0949072
0
LINE
8
0
10
77.6378047
20
-25.3770214
11
87.20866
21
-32.5891782
0
LINE
8
0
10
90.009561
20
-32.1955372
11
98.7878381
21
-20.54637
0
LINE
8
0
10
100.3851091
20
-19.75
11
102
21
-19.75
0
LINE
8
0
10
102
20
-19.75
11
102
21
42.75
0
ARC
8
0
10
38.25
20
-10.75
40
2
50
0
51
90
0
ARC
8
0
10
42.25
20
-13.75
40
2
50
180
51
270
0
ARC
8
0
10
51.0906396
20
-17.75
40
2
50
70.0000019
51
90
0
ARC
8
0
10
76.4341747
20
-26.9742924
40
2
50
53.0000007
51
70.0000019
0
ARC
8
0
10
88.41229
20
-30.9919072
40
2
50
233.0000007
51
323.0000007
0
ARC
8
0
10
100.3851091
20
-21.75
40
2
50
90
51
143.0000007
0
ARC
8
0
10
100
20
42.75
40
2
50
0
51
90
0
ARC
8
0
10
64.75
20
46.75
40
2
50
180
51
270
0
ARC
8
0
10
60.75
20
52.75
40
2
50
0
51
90
0
ARC
8
0
10
46.75
20
56.75
40
2
50
180
51
270
0
ARC
8
0
10
42.75
20
60.75
40
2
50
0
51
90
0
ARC
8
0
10
11.25
20
58.75
40
2
50
90
51
180
0
ARC
8
0
10
7.25
20
44.75
40
2
50
270
51
0
0
ARC
8
0
10
-6.75
20
40.75
40
2
50
90
51
180
0
ARC
8
0
10
-6.75
20
-6.75
40
2
50
180
51
270
0
ENDSEC
0
EOF