0
SECTION
2
HEADER
9
$INSUNITS
70
4
0
ENDSEC
0
SECTION
2
TABLES
0
TABLE
2
LTYPE
0
LTYPE
72
65
70
64
2
CONTINUOUS
3
______
73
0
40
0
0
ENDTAB
0
TABLE
2
LAYER
0
ENDTAB
0
ENDSEC
0
SECTION
2
ENTITIES
0
LINE
8
0
10
-8.75
20
-8.25
11
8.75
21
-8.25
0
LINE
8
0
10
8.75
20
-8.25
11
8.75
21
8.25
0
LINE
8
0
10
8.75
20
8.25
11
-8.75
21
8.25
0
LINE
8
0
10
-8.75
20
8.25
11
-8.75
21
-8.25
0
LINE
8
0
10
-8.75
20
8.75
11
8.75
21
8.75
0
LINE
8
0
10
8.75
20
8.75
11
8.75
21
25.25
0
LINE
8
0
10
8.75
20
25.25
11
-8.75
21
25.25
0
LINE
8
0
10
-8.75
20
25.25
11
-8.75
21
8.75
0
LINE
8
0
10
-8.75
20
25.75
11
8.75
21
25.75
0
LINE
8
0
10
8.75
20
25.75
11
8.75
21
42.25
0
LINE
8
0
10
8.75
20
42.25
11
-8.75
21
42.25
0
LINE
8
0
10
-8.75
20
42.25
11
-8.75
21
25.75
0
LINE
8
0
10
9.25
20
9.75
11
26.75
21
9.75
0
LINE
8
0
10
26.75
20
9.75
11
26.75
21
26.25
0
LINE
8
0
10
26.75
20
26.25
11
9.25
21
26.25
0
LINE
8
0
10
9.25
20
26.25
11
9.25
21
9.75
0
LINE
8
0
10
9.25
20
26.75
11
26.75
21
26.75
0
LINE
8
0
10
26.75
20
26.75
11
26.75
21
43.25
0
LINE
8
0
10
26.75
20
43.25
11
9.25
21
43.25
0
LINE
8
0
10
9.25
20
43.25
11
9.25
21
26.75
0
LINE
8
0
10
9.25
20
43.75
11
26.75
21
43.75
0
LINE
8
0
10
26.75
20
43.75
11
26.75
21
60.25
0
LINE
8
0
10
26.75
20
60.25
11
9.25
21
60.25
0
LINE
8
0
10
9.25
20
60.25
11
9.25
21
43.75
0
LINE
8
0
10
27.25
20
11.75
11
44.75
21
11.75
0
LINE
8
0
10
44.75
20
11.75
11
44.75
21
28.25
0
LINE
8
0
10
44.75
20
28.25
11
27.25
21
28.25
0
LINE
8
0
10
27.25
20
28.25
11
27.25
21
11.75
0
LINE
8
0
10
27.25
20
28.75
11
44.75
21
28.75
0
LINE
8
0
10
44.75
20
28.75
11
44.75
21
45.25
0
LINE
8
0
10
44.75
20
45.25
11
27.25
21
45.25
0
LINE
8
0
10
27.25
20
45.25
11
27.25
21
28.75
0
LINE
8
0
10
27.25
20
45.75
11
44.75
21
45.75
0
LINE
8
0
10
44.75
20
45.75
11
44.75
21
62.25
0
LINE
8
0
10
44.75
20
62.25
11
27.25
21
62.25
0
LINE
8
0
10
27.25
20
62.25
11
27.25
21
45.75
0
LINE
8
0
10
45.25
20
3.75
11
62.75
21
3.75
0
LINE
8
0
10
62.75
20
3.75
11
62.75
21
20.25
0
LINE
8
0
10
62.75
20
20.25
11
45.25
21
20.25
0
LINE
8
0
10
45.25
20
20.25
11
45.25
21
3.75
0
LINE
8
0
10
45.25
20
20.75
11
62.75
21
20.75
0
LINE
8
0
10
62.75
20
20.75
11
62.75
21
37.25
0
LINE
8
0
10
62.75
20
37.25
11
45.25
21
37.25
0
LINE
8
0
10
45.25
20
37.25
11
45.25
21
20.75
0
LINE
8
0
10
45.25
20
37.75
11
62.75
21
37.75
0
LINE
8
0
10
62.75
20
37.75
11
62.75
21
54.25
0
LINE
8
0
10
62.75
20
54.25
11
45.25
21
54.25
0
LINE
8
0
10
45.25
20
54.25
11
45.25
21
37.75
0
LINE
8
0
10
63.25
20
10.75
11
80.75
21
10.75
0
LINE
8
0
10
80.75
20
10.75
11
80.75
21
27.25
0
LINE
8
0
10
80.75
20
27.25
11
63.25
21
27.25
0
LINE
8
0
10
63.25
20
27.25
11
63.25
21
10.75
0
LINE
8
0
10
63.25
20
27.75
11
80.75
21
27.75
0
LINE
8
0
10
80.75
20
27.75
11
80.75
21
44.25
0
LINE
8
0
10
80.75
20
44.25
11
63.25
21
44.25
0
LINE
8
0
10
63.25
20
44.25
11
63.25
21
27.75
0
LINE
8
0
10
40.25
20
-15.25
11
57.75
21
-15.25
0
LINE
8
0
10
57.75
20
-15.25
11
57.75
21
1.25
0
LINE
8
0
10
57.75
20
1.25
11
40.25
21
1.25
0
LINE
8
0
10
40.25
20
1.25
11
40.25
21
-15.25
0
LINE
8
0
10
58.9560234
20
-14.7597879
11
75.4006442
21
-20.7451404
0
LINE
8
0
10
75.4006442
20
-20.7451404
11
81.0439766
21
-5.2402121
0
LINE
8
0
10
81.0439766
20
-5.2402121
11
64.5993558
21
0.7451404
0
LINE
8
0
10
64.5993558
20
0.7451404
11
58.9560234
21
-14.7597879
0
LINE
8
0
10
75.130717
20
-22.8617275
11
89.1068385
21
-33.3934904
0
LINE
8
0
10
89.1068385
20
-33.3934904
11
99.0367864
21
-20.2160045
0
LINE
8
0
10
99.0367864
20
-20.2160045
11
85.0606649
21
-9.6842416
0
LINE
8
0
10
85.0606649
20
-9.6842416
11
75.130717
21
-22.8617275
0
ENDSEC
0
EOF